<svg width="25" height="25" viewBox="0 0 25 25" fill="none" xmlns="http://www.w3.org/2000/svg">
<g id="Icon">
<mask id="mask0_2390_3656" style="mask-type:alpha" maskUnits="userSpaceOnUse" x="0" y="0" width="25" height="25">
<rect id="Bounding box" x="0.5" y="0.658203" width="24" height="24" fill="#D9D9D9"/>
</mask>
<g mask="url(#mask0_2390_3656)">
<path id="remove" d="M6.5 13.6582C6.21667 13.6582 5.97917 13.5624 5.7875 13.3707C5.59583 13.179 5.5 12.9415 5.5 12.6582C5.5 12.3749 5.59583 12.1374 5.7875 11.9457C5.97917 11.754 6.21667 11.6582 6.5 11.6582H18.5C18.7833 11.6582 19.0208 11.754 19.2125 11.9457C19.4042 12.1374 19.5 12.3749 19.5 12.6582C19.5 12.9415 19.4042 13.179 19.2125 13.3707C19.0208 13.5624 18.7833 13.6582 18.5 13.6582H6.5Z" fill="#007D81"/>
</g>
</g>
</svg>
