<svg width="16" height="17" viewBox="0 0 16 17" fill="none" xmlns="http://www.w3.org/2000/svg">
<g id="Icon">
<mask id="mask0_2390_4539" style="mask-type:alpha" maskUnits="userSpaceOnUse" x="0" y="0" width="16" height="17">
<rect id="Bounding box" y="0.158203" width="16" height="16" fill="#D9D9D9"/>
</mask>
<g mask="url(#mask0_2390_4539)">
<path id="tune" d="M2.66667 12.8249C2.47778 12.8249 2.31944 12.761 2.19167 12.6332C2.06389 12.5054 2 12.3471 2 12.1582C2 11.9693 2.06389 11.811 2.19167 11.6832C2.31944 11.5554 2.47778 11.4915 2.66667 11.4915H5.33333C5.52222 11.4915 5.68056 11.5554 5.80833 11.6832C5.93611 11.811 6 11.9693 6 12.1582C6 12.3471 5.93611 12.5054 5.80833 12.6332C5.68056 12.761 5.52222 12.8249 5.33333 12.8249H2.66667ZM2.66667 4.82487C2.47778 4.82487 2.31944 4.76098 2.19167 4.6332C2.06389 4.50543 2 4.34709 2 4.1582C2 3.96931 2.06389 3.81098 2.19167 3.6832C2.31944 3.55543 2.47778 3.49154 2.66667 3.49154H8C8.18889 3.49154 8.34722 3.55543 8.475 3.6832C8.60278 3.81098 8.66667 3.96931 8.66667 4.1582C8.66667 4.34709 8.60278 4.50543 8.475 4.6332C8.34722 4.76098 8.18889 4.82487 8 4.82487H2.66667ZM8 14.1582C7.81111 14.1582 7.65278 14.0943 7.525 13.9665C7.39722 13.8388 7.33333 13.6804 7.33333 13.4915V10.8249C7.33333 10.636 7.39722 10.4776 7.525 10.3499C7.65278 10.2221 7.81111 10.1582 8 10.1582C8.18889 10.1582 8.34722 10.2221 8.475 10.3499C8.60278 10.4776 8.66667 10.636 8.66667 10.8249V11.4915H13.3333C13.5222 11.4915 13.6806 11.5554 13.8083 11.6832C13.9361 11.811 14 11.9693 14 12.1582C14 12.3471 13.9361 12.5054 13.8083 12.6332C13.6806 12.761 13.5222 12.8249 13.3333 12.8249H8.66667V13.4915C8.66667 13.6804 8.60278 13.8388 8.475 13.9665C8.34722 14.0943 8.18889 14.1582 8 14.1582ZM5.33333 10.1582C5.14444 10.1582 4.98611 10.0943 4.85833 9.96654C4.73056 9.83876 4.66667 9.68043 4.66667 9.49154V8.82487H2.66667C2.47778 8.82487 2.31944 8.76098 2.19167 8.6332C2.06389 8.50543 2 8.34709 2 8.1582C2 7.96931 2.06389 7.81098 2.19167 7.6832C2.31944 7.55543 2.47778 7.49154 2.66667 7.49154H4.66667V6.82487C4.66667 6.63598 4.73056 6.47765 4.85833 6.34987C4.98611 6.22209 5.14444 6.1582 5.33333 6.1582C5.52222 6.1582 5.68056 6.22209 5.80833 6.34987C5.93611 6.47765 6 6.63598 6 6.82487V9.49154C6 9.68043 5.93611 9.83876 5.80833 9.96654C5.68056 10.0943 5.52222 10.1582 5.33333 10.1582ZM8 8.82487C7.81111 8.82487 7.65278 8.76098 7.525 8.6332C7.39722 8.50543 7.33333 8.34709 7.33333 8.1582C7.33333 7.96931 7.39722 7.81098 7.525 7.6832C7.65278 7.55543 7.81111 7.49154 8 7.49154H13.3333C13.5222 7.49154 13.6806 7.55543 13.8083 7.6832C13.9361 7.81098 14 7.96931 14 8.1582C14 8.34709 13.9361 8.50543 13.8083 8.6332C13.6806 8.76098 13.5222 8.82487 13.3333 8.82487H8ZM10.6667 6.1582C10.4778 6.1582 10.3194 6.09431 10.1917 5.96654C10.0639 5.83876 10 5.68043 10 5.49154V2.82487C10 2.63598 10.0639 2.47765 10.1917 2.34987C10.3194 2.22209 10.4778 2.1582 10.6667 2.1582C10.8556 2.1582 11.0139 2.22209 11.1417 2.34987C11.2694 2.47765 11.3333 2.63598 11.3333 2.82487V3.49154H13.3333C13.5222 3.49154 13.6806 3.55543 13.8083 3.6832C13.9361 3.81098 14 3.96931 14 4.1582C14 4.34709 13.9361 4.50543 13.8083 4.6332C13.6806 4.76098 13.5222 4.82487 13.3333 4.82487H11.3333V5.49154C11.3333 5.68043 11.2694 5.83876 11.1417 5.96654C11.0139 6.09431 10.8556 6.1582 10.6667 6.1582Z" fill="#171818"/>
</g>
</g>
</svg>
