<svg width="16" height="17" viewBox="0 0 16 17" fill="none" xmlns="http://www.w3.org/2000/svg">
<g id="Icon">
<mask id="mask0_2701_8816" style="mask-type:alpha" maskUnits="userSpaceOnUse" x="0" y="0" width="16" height="17">
<rect id="Bounding box" y="0.658203" width="16" height="16" fill="#D9D9D9"/>
</mask>
<g mask="url(#mask0_2701_8816)">
<path id="call" d="M13.3002 14.6585C11.8669 14.6585 10.4697 14.3391 9.10858 13.7002C7.74747 13.0613 6.54191 12.2168 5.49191 11.1668C4.44191 10.1168 3.59747 8.91129 2.95858 7.55018C2.31969 6.18906 2.00024 4.79184 2.00024 3.35851C2.00024 3.15851 2.06691 2.99184 2.20024 2.85851C2.33358 2.72517 2.50024 2.65851 2.70024 2.65851H5.40024C5.5558 2.65851 5.69469 2.70851 5.81691 2.80851C5.93913 2.90851 6.01136 3.03629 6.03358 3.19184L6.46691 5.52518C6.48913 5.68073 6.48636 5.8224 6.45858 5.95018C6.4308 6.07795 6.36691 6.19184 6.26691 6.29184L4.65024 7.92518C5.11691 8.72518 5.70302 9.47518 6.40858 10.1752C7.11413 10.8752 7.88913 11.4807 8.73358 11.9918L10.3002 10.4252C10.4002 10.3252 10.5308 10.2502 10.6919 10.2002C10.853 10.1502 11.0114 10.1363 11.1669 10.1585L13.4669 10.6252C13.6225 10.6585 13.7502 10.7335 13.8502 10.8502C13.9502 10.9668 14.0002 11.103 14.0002 11.2585V13.9585C14.0002 14.1585 13.9336 14.3252 13.8002 14.4585C13.6669 14.5918 13.5002 14.6585 13.3002 14.6585ZM4.01691 6.65851L5.11691 5.55851L4.83358 3.99184H3.35024C3.4058 4.4474 3.48358 4.8974 3.58358 5.34184C3.68358 5.78629 3.82802 6.22518 4.01691 6.65851ZM12.6669 13.2918V11.8252L11.1002 11.5085L9.98358 12.6252C10.4169 12.8141 10.8586 12.9641 11.3086 13.0752C11.7586 13.1863 12.2114 13.2585 12.6669 13.2918Z" fill="#EA5504"/>
</g>
</g>
</svg>
