<svg width="33" height="32" viewBox="0 0 33 32" fill="none" xmlns="http://www.w3.org/2000/svg">
<g id="Group">
<path id="Vector" d="M14.491 29.0702V31.4453C6.83667 30.4522 0.921053 23.9084 0.921053 15.985C0.921053 8.06166 6.83667 1.5178 14.491 0.52475V2.91497C8.14819 3.89088 3.28498 9.37267 3.28498 15.9926C3.28498 22.6124 8.14095 28.0944 14.491 29.0702Z" fill="white" stroke="white" stroke-width="0.842106"/>
<path id="Subtract" d="M26.809 18.6023V15.2592L28.902 13.1661V16C28.902 16.1742 28.8984 16.3476 28.8913 16.52L26.809 18.6023ZM22.7608 11.8883L20.6754 9.80297V6.45987L22.7608 8.54525V11.8883Z" fill="white" stroke="white" stroke-width="0.842106"/>
<path id="Union" d="M19.8355 2.24988V28.2509V28.8194L20.3792 28.6537C21.4516 28.327 22.466 27.8679 23.4035 27.2954L23.6051 27.1723V26.9361V5.07248V3.94355V2.11654C24.4411 2.54395 25.2324 3.04552 25.969 3.60823V3.94355V7.84953V24.1581V25.3273L26.7144 24.4265C28.608 22.1385 29.7463 19.2015 29.7463 16V7.7548C31.2424 10.1485 32.1102 12.9703 32.1102 16C32.1102 24.2878 25.636 31.0687 17.4716 31.5591V30.0208V28.794V3.20634V2.80213L17.464 2.80182V0.441315C18.2741 0.490169 19.062 0.597984 19.8279 0.764462V1.82883V2.24988H19.8355Z" fill="white" stroke="white" stroke-width="0.842106"/>
</g>
</svg>
