<svg width="41" height="40" viewBox="0 0 41 40" fill="none" xmlns="http://www.w3.org/2000/svg">
<g id="Icon">
<mask id="mask0_738_50845" style="mask-type:alpha" maskUnits="userSpaceOnUse" x="0" y="0" width="41" height="40">
<rect id="Bounding box" x="0.5" width="40" height="40" fill="#D9D9D9"/>
</mask>
<g mask="url(#mask0_738_50845)">
<path id="diversity_1" d="M2.44446 22.8333C1.79629 21.7037 1.31018 20.5648 0.986125 19.4167C0.662042 18.2685 0.5 17.1296 0.5 16C0.5 12.9259 1.56482 10.3241 3.69446 8.19446C5.82407 6.06482 8.42592 5 11.5 5C13.25 5 14.912 5.36343 16.4861 6.09029C18.0602 6.81712 19.3981 7.81481 20.5 9.08333C21.6019 7.81481 22.9398 6.81712 24.5139 6.09029C26.088 5.36343 27.75 5 29.5 5C32.5741 5 35.1759 6.06482 37.3055 8.19446C39.4352 10.3241 40.5 12.9259 40.5 16C40.5 17.1296 40.338 18.2639 40.0139 19.4028C39.6898 20.5417 39.2037 21.6759 38.5555 22.8056C38.2685 22.4074 37.9398 22.0602 37.5695 21.7639C37.1991 21.4676 36.7917 21.2223 36.3472 21.0278C36.8009 20.1667 37.1435 19.3195 37.375 18.4861C37.6065 17.6528 37.7223 16.8241 37.7223 16C37.7223 13.7037 36.9259 11.7593 35.3333 10.1667C33.7408 8.57406 31.7963 7.77775 29.5 7.77775C27.7315 7.77775 26.1505 8.2847 24.757 9.29858C23.3634 10.3125 21.9444 11.6852 20.5 13.4166C19.0556 11.6759 17.6366 10.3009 16.243 9.29163C14.8495 8.28238 13.2685 7.77775 11.5 7.77775C9.20369 7.77775 7.25925 8.57406 5.66667 10.1667C4.07406 11.7593 3.27775 13.7037 3.27775 16C3.27775 16.8241 3.3935 17.6528 3.625 18.4861C3.85647 19.3195 4.19907 20.1667 4.65279 21.0278C4.20835 21.2223 3.80093 21.4723 3.43054 21.7778C3.06018 22.0833 2.73146 22.4352 2.44446 22.8333ZM0.5 36.6667V34.3195C0.5 33.1898 1.0949 32.2801 2.28471 31.5903C3.47454 30.9005 5.00926 30.5556 6.88888 30.5556C7.24999 30.5556 7.58794 30.5625 7.90275 30.5764C8.21758 30.5903 8.52778 30.625 8.83333 30.6806C8.55556 31.1806 8.34722 31.6991 8.20833 32.2361C8.06944 32.7732 8 33.3472 8 33.9583V36.6667H0.5ZM10.5 36.6667V33.9583C10.5 32.1528 11.4236 30.6944 13.2708 29.5833C15.1181 28.4722 17.5278 27.9167 20.5 27.9167C23.5 27.9167 25.9167 28.4722 27.75 29.5833C29.5833 30.6944 30.5 32.1528 30.5 33.9583V36.6667H10.5ZM33 36.6667V33.9583C33 33.3472 32.9375 32.7732 32.8125 32.2361C32.6875 31.6991 32.4907 31.1806 32.2222 30.6806C32.5278 30.625 32.8357 30.5903 33.1458 30.5764C33.456 30.5625 33.7778 30.5556 34.1111 30.5556C36.0185 30.5556 37.5602 30.9005 38.7361 31.5903C39.912 32.2801 40.5 33.1898 40.5 34.3195V36.6667H33ZM20.5 30.6944C18.4907 30.6944 16.8148 30.9861 15.4722 31.5694C14.1296 32.1528 13.4213 32.8796 13.3472 33.75V33.8889H27.6667V33.7222C27.5834 32.8704 26.8773 32.1528 25.5486 31.5694C24.2199 30.9861 22.5371 30.6944 20.5 30.6944ZM6.88888 29.1667C6.04629 29.1667 5.32639 28.8681 4.72917 28.2709C4.13194 27.6737 3.83333 26.9537 3.83333 26.1111C3.83333 25.2593 4.13194 24.5371 4.72917 23.9445C5.32639 23.3519 6.04629 23.0556 6.88888 23.0556C7.74074 23.0556 8.46296 23.3519 9.05554 23.9445C9.64813 24.5371 9.94442 25.2593 9.94442 26.1111C9.94442 26.9537 9.64813 27.6737 9.05554 28.2709C8.46296 28.8681 7.74074 29.1667 6.88888 29.1667ZM34.1111 29.1667C33.2685 29.1667 32.5486 28.8681 31.9514 28.2709C31.3542 27.6737 31.0556 26.9537 31.0556 26.1111C31.0556 25.2593 31.3542 24.5371 31.9514 23.9445C32.5486 23.3519 33.2685 23.0556 34.1111 23.0556C34.963 23.0556 35.6852 23.3519 36.2778 23.9445C36.8704 24.5371 37.1667 25.2593 37.1667 26.1111C37.1667 26.9537 36.8704 27.6737 36.2778 28.2709C35.6852 28.8681 34.963 29.1667 34.1111 29.1667ZM20.5 26.6667C19.1111 26.6667 17.9306 26.1806 16.9583 25.2083C15.9861 24.2361 15.5 23.0556 15.5 21.6667C15.5 20.25 15.9861 19.0625 16.9583 18.1042C17.9306 17.1458 19.1111 16.6667 20.5 16.6667C21.9167 16.6667 23.1042 17.1458 24.0625 18.1042C25.0208 19.0625 25.5 20.25 25.5 21.6667C25.5 23.0556 25.0208 24.2361 24.0625 25.2083C23.1042 26.1806 21.9167 26.6667 20.5 26.6667ZM20.5 19.4444C19.8796 19.4444 19.3542 19.6551 18.9236 20.0764C18.493 20.4977 18.2778 21.0278 18.2778 21.6667C18.2778 22.287 18.493 22.8125 18.9236 23.2431C19.3542 23.6736 19.8796 23.8889 20.5 23.8889C21.1389 23.8889 21.669 23.6736 22.0903 23.2431C22.5116 22.8125 22.7222 22.287 22.7222 21.6667C22.7222 21.0278 22.5116 20.4977 22.0903 20.0764C21.669 19.6551 21.1389 19.4444 20.5 19.4444Z" fill="#EA5504"/>
<rect id="Rectangle 1197" x="12.6777" y="30.3789" width="15.6445" height="5.47852" fill="#EA5504" fill-opacity="0.3"/>
</g>
</g>
</svg>
