<svg width="25" height="25" viewBox="0 0 25 25" fill="none" xmlns="http://www.w3.org/2000/svg">
<g id="Icon">
<mask id="mask0_2390_3651" style="mask-type:alpha" maskUnits="userSpaceOnUse" x="0" y="0" width="25" height="25">
<rect id="Bounding box" x="0.5" y="0.658203" width="24" height="24" fill="#D9D9D9"/>
</mask>
<g mask="url(#mask0_2390_3651)">
<path id="live_help" d="M12.45 17.4582C12.8 17.4582 13.0958 17.3374 13.3375 17.0957C13.5792 16.854 13.7 16.5582 13.7 16.2082C13.7 15.8582 13.5792 15.5624 13.3375 15.3207C13.0958 15.079 12.8 14.9582 12.45 14.9582C12.1 14.9582 11.8042 15.079 11.5625 15.3207C11.3208 15.5624 11.2 15.8582 11.2 16.2082C11.2 16.5582 11.3208 16.854 11.5625 17.0957C11.8042 17.3374 12.1 17.4582 12.45 17.4582ZM13.45 12.7582C13.5 12.4915 13.5875 12.2582 13.7125 12.0582C13.8375 11.8582 14.0833 11.5749 14.45 11.2082C15.0667 10.5915 15.4833 10.0915 15.7 9.7082C15.9167 9.32487 16.025 8.89154 16.025 8.4082C16.025 7.5582 15.7125 6.85404 15.0875 6.2957C14.4625 5.73737 13.675 5.4582 12.725 5.4582C12.0083 5.4582 11.3708 5.60404 10.8125 5.8957C10.2542 6.18737 9.825 6.57487 9.525 7.0582C9.375 7.29154 9.33333 7.53737 9.4 7.7957C9.46667 8.05404 9.61667 8.2332 9.85 8.3332C10.0833 8.4332 10.3125 8.43737 10.5375 8.3457C10.7625 8.25404 10.9417 8.09987 11.075 7.8832C11.2417 7.64987 11.4667 7.4707 11.75 7.3457C12.0333 7.2207 12.325 7.1582 12.625 7.1582C13.0917 7.1582 13.4667 7.2832 13.75 7.5332C14.0333 7.7832 14.175 8.09987 14.175 8.4832C14.175 8.79987 14.0792 9.11654 13.8875 9.4332C13.6958 9.74987 13.4 10.0832 13 10.4332C12.5667 10.8165 12.2333 11.2082 12 11.6082C11.7667 12.0082 11.65 12.3832 11.65 12.7332C11.65 12.9665 11.7375 13.1665 11.9125 13.3332C12.0875 13.4999 12.3 13.5832 12.55 13.5832C12.7833 13.5832 12.9792 13.504 13.1375 13.3457C13.2958 13.1874 13.4 12.9915 13.45 12.7582ZM11.8 22.9582L9.5 20.6582H5.5C4.95 20.6582 4.47917 20.4624 4.0875 20.0707C3.69583 19.679 3.5 19.2082 3.5 18.6582V4.6582C3.5 4.1082 3.69583 3.63737 4.0875 3.2457C4.47917 2.85404 4.95 2.6582 5.5 2.6582H19.5C20.05 2.6582 20.5208 2.85404 20.9125 3.2457C21.3042 3.63737 21.5 4.1082 21.5 4.6582V18.6582C21.5 19.2082 21.3042 19.679 20.9125 20.0707C20.5208 20.4624 20.05 20.6582 19.5 20.6582H15.5L13.2 22.9582C13.0167 23.1415 12.7833 23.2332 12.5 23.2332C12.2167 23.2332 11.9833 23.1415 11.8 22.9582ZM5.5 18.6582H10.3L12.5 20.8582L14.7 18.6582H19.5V4.6582H5.5V18.6582Z" fill="#007D81"/>
</g>
</g>
</svg>
