<svg width="20" height="21" viewBox="0 0 20 21" fill="none" xmlns="http://www.w3.org/2000/svg">
<g id="Icon">
<mask id="mask0_2390_258" style="mask-type:alpha" maskUnits="userSpaceOnUse" x="0" y="0" width="20" height="21">
<rect id="Bounding box" y="0.158203" width="20" height="20" fill="#D9D9D9"/>
</mask>
<g mask="url(#mask0_2390_258)">
<path id="psychiatry" d="M10 17.6582C9.76389 17.6582 9.56597 17.5783 9.40625 17.4186C9.24653 17.2589 9.16667 17.061 9.16667 16.8249V11.0124C8.27778 11.0124 7.42361 10.8422 6.60417 10.502C5.78472 10.1617 5.0625 9.67904 4.4375 9.05404C3.8125 8.42904 3.33333 7.70681 3 6.88737C2.66667 6.06793 2.5 5.21376 2.5 4.32487V3.49154C2.5 3.25543 2.57986 3.05751 2.73958 2.89779C2.89931 2.73806 3.09722 2.6582 3.33333 2.6582H4.16667C5.04167 2.6582 5.88889 2.82834 6.70833 3.16862C7.52778 3.5089 8.25 3.99154 8.875 4.61654C9.30556 5.04709 9.66319 5.51931 9.94792 6.0332C10.2326 6.54709 10.4514 7.0957 10.6042 7.67904C10.6736 7.58181 10.75 7.48806 10.8333 7.39779C10.9167 7.30751 11.0069 7.21376 11.1042 7.11654C11.7292 6.49154 12.4514 6.0089 13.2708 5.66862C14.0903 5.32834 14.9444 5.1582 15.8333 5.1582H16.6667C16.9028 5.1582 17.1007 5.23806 17.2604 5.39779C17.4201 5.55751 17.5 5.75543 17.5 5.99154V6.82487C17.5 7.71376 17.3299 8.56792 16.9896 9.38737C16.6493 10.2068 16.1667 10.929 15.5417 11.554C14.9167 12.179 14.1979 12.6582 13.3854 12.9915C12.5729 13.3249 11.7222 13.4915 10.8333 13.4915V16.8249C10.8333 17.061 10.7535 17.2589 10.5938 17.4186C10.434 17.5783 10.2361 17.6582 10 17.6582ZM9.16667 9.32487C9.16667 8.6582 9.03819 8.02279 8.78125 7.41862C8.52431 6.81445 8.15972 6.27626 7.6875 5.80404C7.21528 5.33181 6.67708 4.96723 6.07292 4.71029C5.46875 4.45334 4.83333 4.32487 4.16667 4.32487C4.16667 4.99154 4.29167 5.63043 4.54167 6.24154C4.79167 6.85265 5.15278 7.39431 5.625 7.86654C6.09722 8.33876 6.63889 8.69987 7.25 8.94987C7.86111 9.19987 8.5 9.32487 9.16667 9.32487ZM10.8333 11.8249C11.5 11.8249 12.1354 11.6999 12.7396 11.4499C13.3438 11.1999 13.8819 10.8388 14.3542 10.3665C14.8264 9.89431 15.191 9.35265 15.4479 8.74154C15.7049 8.13043 15.8333 7.49154 15.8333 6.82487C15.1667 6.82487 14.5278 6.95334 13.9167 7.21029C13.3056 7.46723 12.7639 7.83181 12.2917 8.30404C11.8194 8.77626 11.4583 9.31445 11.2083 9.91862C10.9583 10.5228 10.8333 11.1582 10.8333 11.8249Z" fill="#EA5504"/>
</g>
</g>
</svg>
