<svg width="24" height="25" viewBox="0 0 24 25" fill="none" xmlns="http://www.w3.org/2000/svg">
<g id="Icon">
<mask id="mask0_2758_10572" style="mask-type:alpha" maskUnits="userSpaceOnUse" x="0" y="0" width="24" height="25">
<rect id="Bounding box" y="0.543945" width="24" height="24" fill="#D9D9D9"/>
</mask>
<g mask="url(#mask0_2758_10572)">
<path id="nutrition" d="M12 21.5445C10.05 21.5445 8.39583 20.8653 7.0375 19.507C5.67917 18.1486 5 16.4945 5 14.5445C5 12.9778 5.4625 11.5736 6.3875 10.332C7.3125 9.0903 8.525 8.2528 10.025 7.81947C9.69167 7.73614 9.36667 7.6153 9.05 7.45697C8.73333 7.29864 8.45 7.09447 8.2 6.84447C7.65 6.29447 7.29583 5.6403 7.1375 4.88197C6.97917 4.12364 6.94167 3.3528 7.025 2.56947C7.80833 2.48614 8.57917 2.52364 9.3375 2.68197C10.0958 2.8403 10.75 3.19447 11.3 3.74447C11.6833 4.1278 11.9625 4.56114 12.1375 5.04447C12.3125 5.5278 12.425 6.03614 12.475 6.56947C12.6917 6.0528 12.9542 5.5653 13.2625 5.10697C13.5708 4.64864 13.9167 4.2278 14.3 3.84447C14.4833 3.66114 14.7167 3.56947 15 3.56947C15.2833 3.56947 15.5167 3.66114 15.7 3.84447C15.8833 4.0278 15.975 4.26114 15.975 4.54447C15.975 4.8278 15.8833 5.06114 15.7 5.24447C15.3333 5.61114 15.0083 6.0153 14.725 6.45697C14.4417 6.89864 14.2333 7.36947 14.1 7.86947C15.5667 8.33614 16.75 9.18197 17.65 10.407C18.55 11.632 19 13.0111 19 14.5445C19 16.4945 18.3208 18.1486 16.9625 19.507C15.6042 20.8653 13.95 21.5445 12 21.5445ZM12 19.5445C13.3833 19.5445 14.5625 19.057 15.5375 18.082C16.5125 17.107 17 15.9278 17 14.5445C17 13.1611 16.5125 11.982 15.5375 11.007C14.5625 10.032 13.3833 9.54447 12 9.54447C10.6167 9.54447 9.4375 10.032 8.4625 11.007C7.4875 11.982 7 13.1611 7 14.5445C7 15.9278 7.4875 17.107 8.4625 18.082C9.4375 19.057 10.6167 19.5445 12 19.5445Z" fill="#EA5504"/>
</g>
</g>
</svg>
