<svg width="20" height="21" viewBox="0 0 20 21" fill="none" xmlns="http://www.w3.org/2000/svg">
<g id="Icon">
<mask id="mask0_2390_268" style="mask-type:alpha" maskUnits="userSpaceOnUse" x="0" y="0" width="20" height="21">
<rect id="Bounding box" y="0.158203" width="20" height="20" fill="#D9D9D9"/>
</mask>
<g mask="url(#mask0_2390_268)">
<path id="nutrition" d="M10.0003 17.659C8.37533 17.659 6.99685 17.093 5.86491 15.9611C4.73296 14.8291 4.16699 13.4506 4.16699 11.8256C4.16699 10.5201 4.55241 9.34994 5.32324 8.31522C6.09408 7.28049 7.10449 6.58258 8.35449 6.22147C8.07671 6.15202 7.80588 6.05133 7.54199 5.91938C7.2781 5.78744 7.04199 5.6173 6.83366 5.40897C6.37533 4.95063 6.08019 4.40549 5.94824 3.77355C5.8163 3.14161 5.78505 2.49924 5.85449 1.84647C6.50727 1.77702 7.14963 1.80827 7.78158 1.94022C8.41352 2.07216 8.95866 2.3673 9.41699 2.82563C9.73644 3.14508 9.96908 3.50619 10.1149 3.90897C10.2607 4.31174 10.3545 4.73536 10.3962 5.1798C10.5767 4.74924 10.7955 4.34299 11.0524 3.96105C11.3094 3.57911 11.5975 3.22841 11.917 2.90897C12.0698 2.75619 12.2642 2.6798 12.5003 2.6798C12.7364 2.6798 12.9309 2.75619 13.0837 2.90897C13.2364 3.06174 13.3128 3.25619 13.3128 3.4923C13.3128 3.72841 13.2364 3.92286 13.0837 4.07563C12.7781 4.38119 12.5073 4.71799 12.2712 5.08605C12.035 5.45411 11.8614 5.84647 11.7503 6.26313C12.9725 6.65202 13.9587 7.35688 14.7087 8.37772C15.4587 9.39855 15.8337 10.5479 15.8337 11.8256C15.8337 13.4506 15.2677 14.8291 14.1357 15.9611C13.0038 17.093 11.6253 17.659 10.0003 17.659ZM10.0003 15.9923C11.1531 15.9923 12.1357 15.586 12.9482 14.7735C13.7607 13.961 14.167 12.9784 14.167 11.8256C14.167 10.6729 13.7607 9.69022 12.9482 8.87772C12.1357 8.06522 11.1531 7.65897 10.0003 7.65897C8.84755 7.65897 7.86491 8.06522 7.05241 8.87772C6.23991 9.69022 5.83366 10.6729 5.83366 11.8256C5.83366 12.9784 6.23991 13.961 7.05241 14.7735C7.86491 15.586 8.84755 15.9923 10.0003 15.9923Z" fill="#171818" fill-opacity="0.7"/>
</g>
</g>
</svg>
