<svg width="21" height="20" viewBox="0 0 21 20" fill="none" xmlns="http://www.w3.org/2000/svg">
<path id="Exclude" fill-rule="evenodd" clip-rule="evenodd" d="M4.57613 0H15.5586C18.0487 0 20.0674 2.01864 20.0674 4.50875V15.4913C20.0674 17.9814 18.0487 20 15.5586 20H4.57613C2.08602 20 0.0673828 17.9814 0.0673828 15.4913V4.50875C0.0673828 2.01864 2.08602 0 4.57613 0ZM10.0656 3.64648C13.7425 3.64648 16.7337 6.07398 16.7337 9.05773C16.7337 10.2502 16.2706 11.3277 15.3043 12.3871C13.9056 13.9977 10.7775 15.9596 10.0656 16.259C9.37279 16.5503 9.45367 16.0935 9.48558 15.9132L9.48808 15.899C9.50496 15.799 9.58309 15.3284 9.58309 15.3284C9.60559 15.1584 9.62871 14.894 9.56121 14.7252C9.48683 14.5396 9.19121 14.4434 8.97371 14.3965C5.77246 13.9734 3.39746 11.7327 3.39746 9.05773C3.39746 6.07398 6.38871 3.64648 10.0656 3.64648ZM14.5146 10.7805H12.6396C12.6065 10.7805 12.5747 10.7673 12.5513 10.7439C12.5278 10.7204 12.5146 10.6886 12.5146 10.6555V7.74609C12.5146 7.71294 12.5278 7.68115 12.5513 7.65771C12.5747 7.63426 12.6065 7.62109 12.6396 7.62109H14.5146C14.5478 7.62109 14.5796 7.63426 14.603 7.65771C14.6265 7.68115 14.6396 7.71294 14.6396 7.74609V8.21922C14.6396 8.25237 14.6265 8.28416 14.603 8.30761C14.5796 8.33105 14.5478 8.34422 14.5146 8.34422H13.2415V8.83484H14.5146C14.5478 8.83484 14.5796 8.84801 14.603 8.87146C14.6265 8.8949 14.6396 8.92669 14.6396 8.95984V9.43734C14.6396 9.4705 14.6265 9.50229 14.603 9.52573C14.5796 9.54917 14.5478 9.56234 14.5146 9.56234H13.2415V10.0536H14.5146C14.5478 10.0536 14.5796 10.0668 14.603 10.0902C14.6265 10.1136 14.6396 10.1454 14.6396 10.1786V10.6511C14.6402 10.6679 14.6374 10.6846 14.6314 10.7003C14.6254 10.7159 14.6163 10.7302 14.6046 10.7423C14.593 10.7544 14.579 10.764 14.5635 10.7706C14.5481 10.7771 14.5314 10.7805 14.5146 10.7805ZM7.67392 10.7445C7.65047 10.7679 7.61868 10.7811 7.58553 10.7811L7.5874 10.7792H5.7124C5.67925 10.7792 5.64746 10.766 5.62401 10.7426C5.60057 10.7192 5.5874 10.6874 5.5874 10.6542V7.74609C5.5874 7.71294 5.60057 7.68115 5.62401 7.65771C5.64746 7.63426 5.67925 7.62109 5.7124 7.62109H6.1874C6.22055 7.62109 6.25235 7.63426 6.27579 7.65771C6.29923 7.68115 6.3124 7.71294 6.3124 7.74609V10.0586H7.58553C7.61868 10.0586 7.65047 10.0718 7.67392 10.0952C7.69736 10.1186 7.71053 10.1504 7.71053 10.1836V10.6561C7.71053 10.6892 7.69736 10.721 7.67392 10.7445ZM8.71328 7.61523H8.24078C8.17037 7.61523 8.11328 7.67232 8.11328 7.74273V10.6527C8.11328 10.7232 8.17037 10.7802 8.24078 10.7802H8.71328C8.7837 10.7802 8.84078 10.7232 8.84078 10.6527V7.74273C8.84078 7.67232 8.7837 7.61523 8.71328 7.61523ZM11.4596 7.61523H11.9321C11.9487 7.61523 11.9652 7.61855 11.9805 7.62498C11.9959 7.63142 12.0098 7.64085 12.0214 7.65273C12.033 7.6646 12.0422 7.67868 12.0483 7.69413C12.0545 7.70959 12.0574 7.72611 12.0571 7.74273V10.6452C12.0571 10.6784 12.0439 10.7102 12.0205 10.7336C11.9971 10.7571 11.9653 10.7702 11.9321 10.7702H11.4621C11.4507 10.7701 11.4394 10.7686 11.4284 10.7659H11.4196H11.4152H11.409L11.4027 10.7627H11.399L11.3915 10.7577C11.3787 10.749 11.3677 10.738 11.359 10.7252L10.0259 8.92523V10.6709C10.0259 10.704 10.0127 10.7358 9.98925 10.7592C9.96581 10.7827 9.93401 10.7959 9.90086 10.7959H9.42773C9.39458 10.7959 9.36279 10.7827 9.33935 10.7592C9.3159 10.7358 9.30273 10.704 9.30273 10.6709V7.76086C9.30273 7.72771 9.3159 7.69591 9.33935 7.67247C9.36279 7.64903 9.39458 7.63586 9.42773 7.63586H9.90961H9.91648H9.92148H9.92898H9.93398H9.94148H9.94586H9.95273H9.95711L9.96398 7.63961H9.96773L9.97461 7.64461H9.97836L9.98523 7.65023L9.99273 7.65773C9.99676 7.6617 10.0003 7.6661 10.0034 7.67086L11.3346 9.46898V7.74023C11.3346 7.70708 11.3478 7.67529 11.3712 7.65185C11.3947 7.6284 11.4265 7.61523 11.4596 7.61523Z" fill="#00ADB2"/>
</svg>
