<?xml version="1.0" encoding="UTF-8"?><svg xmlns="http://www.w3.org/2000/svg" viewBox="0 0 201.8 22.03"><defs><style>.d{fill:#fff;}</style></defs><g id="a"/><g id="b"><g id="c"><g><path class="d" d="M10.87,12.4c.45,1.4,1.13,2.68,2.01,3.76,1.58-.63,3.06-1.51,4.49-2.55,.13-.1,.25-.13,.38-.13,.36,0,.68,.32,.68,.68,0,.23-.09,.43-.38,.61-1.31,.81-2.88,1.67-4.38,2.26,1.76,1.78,4.11,2.93,6.86,3.36,.38,.05,.58,.32,.58,.63,0,.38-.3,.75-.81,.75-.3,0-7.89-.93-10.67-9.34h-3.59v6.99c1.42-.4,2.73-.85,3.76-1.31,.07-.02,.18-.05,.25-.05,.38,0,.65,.3,.65,.65,0,.2-.13,.43-.45,.58-2.55,1.1-8.19,2.55-9,2.55-.47,0-.72-.32-.72-.65s.23-.63,.63-.7c1.18-.18,2.37-.43,3.5-.7v-7.36H.58c-.38,0-.58-.27-.58-.55s.2-.58,.58-.58H4.64c-.02-.68-.02-1.42-.02-2.21,0-1.73,.02-3.59,.05-5.03,.02-1.8,1.13-2.71,3.05-2.73,1.76-.02,3.68-.02,5.56-.02,1.38,0,2.73,0,4.04,.02,.4,0,.61,.27,.61,.58,0,.27-.2,.58-.61,.58-1.53-.02-3.21-.02-4.83-.02s-3.23,0-4.63,.02c-1.26,.02-1.78,.7-1.8,1.76l-.02,.36h10.52c.36,0,.52,.27,.52,.55s-.18,.55-.52,.55H6c-.02,.7-.02,1.42-.02,2.16h10.58c.36,0,.52,.27,.52,.55s-.18,.55-.52,.55H5.97c0,.83,0,1.63,.02,2.35h14.46c.38,0,.55,.27,.55,.55,0,.3-.18,.58-.55,.58H10.89v-.02Z"/><path class="d" d="M25.72,10.83c-.81,1.8-1.88,3.66-2.84,4.94-.18,.23-.38,.32-.61,.32-.36,0-.68-.3-.68-.68,0-.15,.07-.32,.23-.5,1.2-1.31,2.96-4.16,3.88-6.54l-.02-.77-2.73,.02c-.4,0-.61-.27-.61-.58s.2-.61,.61-.61h2.73l-.05-3.48c-.18,.05-2.18,.45-2.6,.45-.36,0-.55-.32-.55-.65,0-.23,.12-.45,.4-.5,1.98-.27,3.88-.68,5.89-1.53,.05-.02,.13-.05,.2-.05,.3,0,.63,.32,.63,.63,0,.38-.4,.72-2.66,1.33l-.05,3.81h2.26c.38,0,.58,.3,.58,.58s-.2,.61-.58,.61l-2.26-.02c0,1-.02,1.85-.02,2.26,.09-.15,.3-.25,.5-.25,.45,0,2.46,1.76,2.46,2.43,0,.38-.3,.68-.61,.68-.18,0-.36-.09-.5-.32-.55-.88-1-1.38-1.76-1.96-.05-.02-.07-.07-.09-.1,0,2.01,.07,11.08,.07,11.08,0,.4-.32,.61-.65,.61s-.65-.2-.65-.63l.07-10.54v-.04Zm2.43,10.07c0-.15,.07-.3,.23-.4,.81-.55,1.73-1.6,2.21-2.86,.1-.25,.3-.36,.47-.36,.32,0,.63,.25,.63,.55,0,.55-1.71,3.66-2.93,3.66-.36,0-.61-.3-.61-.61v.02ZM33.77,2.43c-.55,0-1,.18-1.22,.7-.5,1.2-1.58,2.98-2.28,2.98-.36,0-.65-.25-.65-.55,0-.15,.05-.27,.18-.4,.65-.65,1.35-1.6,1.71-2.5,.32-.85,1.18-1.22,2.1-1.25,1.78-.05,4.99-.27,6.89-.7,.05,0,.09-.02,.15-.02,.36,0,.61,.32,.61,.63,0,.23-.15,.47-.52,.52-1.93,.32-5.53,.61-6.94,.61h-.01Zm7.94,10.91c0,1.4-.23,2.28-2.23,2.3-1.6,.02-3.21,.05-4.81,.05-.97,0-1.98,0-2.96-.02-.3,0-.43-.23-.43-.45s.15-.47,.45-.47c1.31,.02,2.64,.02,3.88,.02s2.5,0,3.59-.02c.61-.02,1.2-.18,1.25-.85,.02-.15,.02-.36,.02-.58h-10.07c-.3,0-.45-.23-.45-.43,0-.25,.15-.47,.45-.47h10.07c0-.61-.07-1.38-1.28-1.38h-7.34c-.3,0-.47-.23-.47-.47,0-.23,.18-.45,.47-.45,6.49,0,7.34,.02,7.62,.02,1.53,.02,2.16,.68,2.21,1.56,0,.2,.02,.45,.02,.7h1.65c.32,0,.47,.23,.47,.47,0,.23-.15,.47-.47,.47h-1.65Zm-10.65-4.57c-.27,0-.43-.23-.43-.45,0-.25,.15-.47,.45-.47l4.89,.02v-1.73l-3.61,.02c-.27,0-.43-.23-.43-.45,0-.25,.15-.47,.45-.47h3.91s-.05-.02-.05-.05c-.23-.7-.45-1.1-.85-1.71-.05-.07-.07-.13-.07-.2,0-.23,.3-.43,.61-.43,.7,0,1.28,1.48,1.4,1.94,.02,.05,.02,.12,.02,.18,0,.09-.02,.2-.09,.27h3.34c.3,0,.45,.23,.45,.45,0,.25-.15,.47-.45,.47l-3.41-.02v1.73l4.76-.02c.3,0,.45,.23,.45,.45,0,.25-.15,.47-.45,.47h-10.89Zm2.91,10.65c.02,.61,.07,1.18,2.28,1.18,1.76,0,2.64-.18,2.66-1.58,0-.38,.27-.52,.55-.52,.32,0,.68,.23,.68,.55,0,2.1-1.42,2.64-3.91,2.64-2.78,0-3.45-.61-3.45-2.18v-1.38c0-1.13,.02-1.4,.61-1.4,.3,0,.61,.18,.61,.5v2.21h-.01Zm3.25-.93c-.65-.85-1.53-1.38-2.1-1.67-.15-.07-.2-.18-.2-.3,0-.25,.25-.55,.58-.55,.55,0,2.68,1.42,2.68,2.12,0,.36-.27,.61-.55,.61-.15,0-.3-.05-.4-.2h-.01Zm4.91-12.92c-.63-.93-1.58-1.71-2.15-2.12-.13-.09-.18-.2-.18-.3,0-.27,.3-.5,.61-.5,.55,0,2.78,1.96,2.78,2.53,0,.36-.32,.63-.63,.63-.15,0-.3-.07-.43-.23h0Zm.61,14.9c-.61-1.1-1.51-1.93-2.37-2.55-.18-.13-.25-.27-.25-.43,0-.25,.25-.47,.58-.47,.77,0,3.23,2.33,3.23,3.13,0,.4-.3,.68-.65,.68-.18,0-.38-.1-.52-.36h-.01Z"/><path class="d" d="M49.23,11.78c-1.51,1.48-3.43,2.86-3.99,2.86-.38,0-.68-.32-.68-.65,0-.23,.1-.43,.38-.58,4.38-2.35,7.17-6.81,7.17-7.67,0-.32-.22-.5-.58-.5-1.48,0-4.13,.07-5.66,.13h-.02c-.38,0-.58-.27-.58-.58,0-.27,.2-.58,.58-.58l3.34-.07-.02-3.05c0-.43,.36-.63,.68-.63,.36,0,.7,.2,.7,.63v3.05h1.33c1.13,.02,1.67,.55,1.67,1.31,0,1.1-1.65,3.41-3.09,5.06,.02,2.35,.07,10.9,.07,10.9,0,.38-.36,.55-.68,.55-.36,0-.7-.18-.7-.55l.07-9.62h.01Zm4.91,2.08c-.58-.81-1.85-1.78-2.58-2.18-.15-.07-.22-.23-.22-.36,0-.27,.25-.55,.6-.55,.48,0,3.41,1.83,3.41,2.68,0,.4-.32,.7-.68,.7-.18,0-.38-.09-.52-.3h-.01Zm-1.08,6.89c-.43,0-.63-.3-.63-.61s.2-.61,.63-.61l5.86,.02-.02-9.88-4.24,.02c-.4,0-.63-.3-.63-.63,0-.3,.23-.61,.63-.61l4.24,.02V1.44c0-.43,.36-.65,.68-.65,.36,0,.7,.23,.7,.65l-.02,7.09,4.63-.02c.43,0,.65,.3,.65,.61s-.23,.63-.65,.63l-4.63-.02v9.88l5.69-.02c.43,0,.63,.3,.63,.61s-.2,.61-.63,.61h-12.88v-.04Z"/><path class="d" d="M71.1,11.81c-1.4,1.42-3.03,2.68-3.5,2.68-.38,0-.65-.32-.65-.68,0-.2,.1-.4,.36-.55,4.4-2.66,6.27-6.64,6.27-7.29,0-.3-.18-.43-.47-.43-1.33,0-3.21,.05-4.63,.09h-.02c-.36,0-.55-.27-.55-.58,0-.27,.2-.58,.55-.58,.88-.02,1.76-.05,2.6-.05l-.02-3.36c0-.43,.32-.63,.65-.63s.65,.2,.65,.63v3.34c.38,0,.72,.02,1.08,.02,1,.02,1.53,.47,1.53,1.22,0,1.35-1.83,3.76-2.43,4.53,.15,.07,3.31,1.73,3.31,2.71,0,.38-.3,.7-.63,.7-.15,0-.32-.07-.45-.25-.61-.83-1.65-1.6-2.48-2.1,.02,3.21,.07,10.15,.07,10.15,0,.38-.3,.55-.63,.55s-.65-.2-.65-.55l.07-9.59h-.01Zm5.59-8.71c-.4,0-.61-.3-.61-.61,0-.27,.2-.58,.61-.58h11.28c.4,0,.58,.3,.58,.58s-.18,.61-.58,.61h-11.28Zm8.84,18.32c-.9,.02-2.03,.05-3.16,.05s-2.26-.02-3.16-.05c-1.76-.05-2.6-.95-2.66-2.33-.02-.75-.02-1.58-.02-2.43s0-1.67,.02-2.43c.02-1.13,.72-2.21,2.66-2.28,.9-.02,2.01-.05,3.11-.05s2.23,.02,3.18,.05c1.9,.05,2.68,1.08,2.73,2.28,.02,.83,.05,1.8,.05,2.78,0,.7,0,1.4-.05,2.05-.07,1.25-.93,2.3-2.71,2.35h0Zm-3.34-11.14c-4.33,0-4.96-.1-4.96-2.3,0-2.86,.05-2.96,5.19-2.96,4.71,0,5.08,0,5.08,2.64s-.36,2.64-5.31,2.64h0Zm-.5,2.67c-.88,0-1.71,0-2.3,.02-1.1,.02-1.6,.61-1.63,1.53-.02,.45-.02,.97-.02,1.53h3.95v-3.09Zm0,4.08h-3.95c0,.63,0,1.26,.02,1.83,.05,1.56,1.03,1.56,3.93,1.56v-3.38Zm-3.21-8.69c0,.83,.45,.85,4.15,.85s3.61,0,3.61-1.56c0-.3,0-.58-.02-.72-.07-.77-.32-.81-4.11-.81-2.93,0-3.59,0-3.63,.83v1.4Zm8.55,7.69c0-2.18-.1-3.03-1.73-3.06-.65-.02-1.51-.02-2.37-.02v3.09h4.11Zm-4.11,1v3.38c.93,0,1.83-.02,2.46-.05,1.55-.07,1.67-.95,1.67-3.34h-4.13Z"/><path class="d" d="M90.23,20.37c0-.23,.13-.45,.45-.58,.77-.32,2.33-1.88,2.83-3,.13-.27,.32-.38,.55-.38,.38,0,.75,.3,.75,.65,0,.9-2.88,3.93-3.88,3.93-.43,0-.7-.3-.7-.63h.01Zm14.78-15.65c.25,.09,.45,.3,.45,.55,0,.32-1.7,2.64-2.21,3.25,.63,.52,1.28,1.1,1.65,1.51,1.03-1.15,2.01-2.37,2.51-3.25,.1-.18,.27-.25,.45-.25,.32,0,.65,.25,.65,.61,0,.7-3.16,4.04-4.89,5.64,1.63-.15,3.43-.38,4.81-.55-.3-.4-.61-.75-.85-1-.1-.09-.15-.23-.15-.36,0-.25,.25-.47,.52-.47,.68,0,2.8,2.64,2.8,3.23,0,.4-.32,.7-.63,.7-.2,0-.4-.09-.52-.36-.15-.3-.36-.61-.55-.9-4.49,.77-7.49,.97-7.54,.97-.38,0-.55-.27-.55-.55,0-.25,.18-.52,.5-.55,.18,0,.32,0,.5-.02,.61-.47,1.38-1.22,2.15-2.05-.72-.77-2.53-2.23-3.03-2.53-.18-.09-.25-.25-.25-.43,0-.27,.25-.55,.61-.55,.23,0,.38,.05,1,.52,.58-.81,1.51-2.28,1.88-2.96,.05-.09,.13-.15,.23-.2l-3.86-.02-4.63,.02c.27,.07,.5,.32,.5,.61,0,.4-2.03,2.88-2.39,3.31,.63,.5,1.22,1.08,1.55,1.4,1.02-1.1,2.01-2.26,2.53-3.11,.1-.18,.27-.25,.45-.25,.3,0,.65,.25,.65,.63,0,.63-2.98,3.66-4.99,5.39,1.56-.15,3.21-.36,4.4-.52-.2-.3-.4-.55-.61-.75-.1-.09-.15-.2-.15-.3,0-.25,.27-.43,.55-.43,.65,0,2.05,2.33,2.05,2.78,0,.36-.3,.58-.61,.58s-.45-.3-.77-1.03c-3,.52-7.36,1.03-7.76,1.03-.38,0-.58-.27-.58-.55s.18-.52,.5-.55c.38-.02,.83-.05,1.28-.09,.63-.45,1.4-1.18,2.23-2.01-.65-.72-2.6-2.21-3.11-2.5-.18-.09-.25-.25-.25-.43,0-.27,.23-.55,.58-.55,.25,0,.72,.27,1.22,.65,.58-.75,1.67-2.37,2.08-3.09,.05-.1,.13-.18,.23-.2h-4.61c-.38,0-.58-.3-.58-.58s.2-.58,.58-.58l6.77,.02v-.02c-.48-.95-1.1-1.63-1.78-2.3-.07-.07-.13-.18-.13-.27,0-.27,.32-.58,.68-.58,.63,0,2.38,2.03,2.38,2.73,0,.18-.07,.32-.18,.45h3.43c.61-.9,1.18-2.12,1.48-2.88,.12-.32,.38-.45,.63-.45,.38,0,.72,.27,.72,.65,0,.55-1.45,2.58-1.53,2.68l6.68-.02c.38,0,.58,.27,.58,.58,0,.27-.2,.58-.58,.58h-5.24l.06-.05Zm-4.08,16.92c-4.18,0-4.74-.75-4.74-2.33v-2.23c0-1.31,0-1.71,.68-1.71,.32,0,.65,.2,.65,.61,0,.72-.02,2.91-.02,3.21,0,1.13,.68,1.33,3.48,1.33,2.98,0,3.76-.38,3.79-1.94,0-.4,.32-.58,.63-.58,.36,0,.72,.23,.72,.61,0,2.71-2.01,3.03-5.19,3.03h0Zm-1.93-6.45c0-.27,.27-.61,.65-.61,.27,0,3.86,1.78,3.86,2.78,0,.36-.3,.68-.65,.68-.15,0-.32-.07-.47-.25-.77-.9-2.18-1.76-3.11-2.21-.2-.07-.27-.25-.27-.4h0Zm11.03,4.75c-.77-1.26-2.33-2.35-3.16-2.88-.18-.09-.25-.25-.25-.4,0-.27,.3-.58,.68-.58,.7,0,3.99,2.46,3.99,3.43,0,.43-.36,.72-.72,.72-.2,0-.4-.07-.52-.3h-.01Z"/><path class="d" d="M113.74,14.26c-.38,0-.55-.27-.55-.55,0-.3,.18-.58,.58-.58l5.31,.02c-.36-.61-.93-1.33-1.33-1.76-.07-.09-.13-.2-.13-.3,0-.27,.32-.58,.68-.58,.83,0,2.08,2.33,2.08,2.64l2.21,.02v-3.45l-8.84,.02c-.38,0-.55-.27-.55-.55,0-.3,.18-.58,.58-.58l8.82,.05v-1.88l-6.29,.02c-.36,0-.55-.27-.55-.52,0-.27,.2-.52,.55-.52l6.29,.02v-1.8h-7.62c-.38,0-.55-.27-.55-.52,0-.27,.18-.55,.55-.55h5.31c-.43-.81-1-1.31-1.6-1.88-.1-.09-.13-.2-.13-.27,0-.3,.32-.58,.7-.58,.63,0,2.3,1.94,2.3,2.5,0,.07,0,.15-.02,.23l1.7,.02,1.73-.02c.52-.77,.97-1.76,1.28-2.48,.12-.3,.38-.43,.63-.43,.4,0,.77,.27,.77,.65,0,.23-.55,1.18-1.35,2.26h5.21c.38,0,.58,.27,.58,.52,0,.27-.2,.55-.58,.55h-7.65v1.8l6.32-.02c.36,0,.52,.27,.52,.52,0,.27-.18,.52-.52,.52l-6.32-.02v1.88l8.89-.05c.38,0,.58,.3,.58,.58s-.18,.55-.55,.55l-8.92-.02v3.45l2.3-.02c.43-.65,.9-1.73,1.13-2.3,.1-.27,.36-.38,.61-.38,.32,0,.7,.23,.7,.61,0,.13-.05,.45-1.15,2.08l5.31-.02c.38,0,.58,.3,.58,.58s-.18,.55-.55,.55h-19.05Zm9.64,7.11c-1.58,0-3.13,0-4.49-.05-1.63-.05-2.41-.61-2.46-1.63-.02-.36-.02-.83-.02-1.22,0-1.15,.07-2.43,2.37-2.43,1.98,0,4.08-.02,6.14-.02,1,0,2.01,0,2.98,.02,1.58,.02,2.21,.81,2.26,1.48,.02,.32,.05,.77,.05,1.2,0,1.31-.15,2.53-2.33,2.6-1.35,.05-2.93,.05-4.51,.05h.01Zm5.51-2.73c0-.97-.1-1.53-1.33-1.53-1.25-.02-2.75-.02-4.26-.02s-3,0-4.29,.02c-1.26,0-1.31,.5-1.31,1.67,0,.25,0,.47,.02,.65,.07,.77,.32,.77,6.07,.77,4.54,0,4.96-.02,5.03-.81,.02-.23,.05-.5,.05-.77h.01Z"/><path class="d" d="M149.31,12.71c1.98,1.96,4.21,3.25,6.84,4.01,.32,.09,.45,.36,.45,.63,0,.38-.25,.75-.72,.75-.5,0-4.44-1.33-7.94-5.39h-4.36c-2.98,3.66-7.17,5.78-8.01,5.78-.43,0-.68-.3-.68-.63,0-.25,.15-.5,.47-.63,2.86-1.03,5.12-2.66,6.77-4.53l-6.34,.05c-.38,0-.58-.3-.58-.58s.2-.58,.58-.58l5.28,.02V4.25l-4.06,.02c-.38,0-.58-.3-.58-.58s.2-.58,.58-.58h4.06V.7c0-.36,.32-.52,.65-.52s.65,.18,.65,.52V3.13h6.74V.7c0-.38,.32-.55,.65-.55,.3,0,.63,.18,.63,.55V3.11h4.18c.4,0,.58,.27,.58,.58,0,.27-.18,.58-.58,.58l-4.18-.02v7.36l5.41-.02c.4,0,.58,.3,.58,.58s-.18,.58-.55,.58l-6.52-.05h-.02Zm-11.53,8.4c-.38,0-.55-.27-.55-.58,0-.27,.18-.55,.55-.55l7.34,.02v-2.66l-4.11,.02c-.38,0-.58-.27-.58-.55s.2-.55,.58-.55h4.11l-.02-1.78c0-.4,.32-.61,.68-.61,.32,0,.65,.2,.65,.61l-.02,1.78h4.18c.38,0,.55,.27,.55,.55s-.18,.55-.55,.55l-4.18-.02v2.66l7.51-.02c.38,0,.55,.27,.55,.58,0,.27-.18,.55-.55,.55h-16.13Zm11.32-16.83l-3.31-.02-3.43,.02v1.76h6.74v-1.76Zm0,2.71h-6.74v1.8h6.74v-1.8Zm0,2.75h-6.74v1.9l3.41,.02,3.34-.02v-1.9Z"/><path class="d" d="M168.3,2.09c-.32,0-.68,.2-1.02,.65-3.03,3.86-7.97,7.87-8.92,7.87-.45,0-.75-.32-.75-.7,0-.25,.15-.5,.48-.68,3.05-1.58,6.36-4.89,8.32-7.44,.5-.63,1.13-.97,1.8-.97s1.33,.32,1.96,.97c2.53,2.71,5.33,5.14,8.44,6.72,.27,.15,.4,.38,.4,.61,0,.4-.36,.81-.81,.81-.95,0-6.18-4.26-8.8-7.17-.38-.45-.75-.65-1.1-.65h-.01Zm-9.37,18.6c-.4,0-.61-.3-.61-.61,0-.27,.2-.58,.61-.58l8.75,.02v-6.34l-6.84,.02c-.4,0-.61-.3-.61-.61s.2-.61,.61-.61l6.84,.02v-3.28l-3.61,.02c-.4,0-.61-.27-.61-.58,0-.27,.2-.58,.61-.58h8.69c.4,0,.61,.27,.61,.58,0,.27-.2,.58-.63,.58l-3.73-.02v3.28l6.86-.02c.4,0,.58,.3,.58,.61s-.18,.61-.58,.61l-6.86-.02v6.34h1.6c.83-1.22,1.63-3.03,2.08-4.49,.1-.32,.36-.47,.63-.47,.38,0,.75,.27,.75,.68,0,.23-1.1,2.73-2.18,4.29l5.87-.02c.4,0,.58,.3,.58,.58s-.18,.61-.58,.61h-18.82Zm5.14-2.48c-.45-1.06-1.33-2.08-1.9-2.64-.09-.1-.13-.2-.13-.3,0-.27,.32-.55,.68-.55,.68,0,2.58,2.37,2.58,3.13,0,.4-.36,.72-.7,.72-.22,0-.43-.09-.52-.38Z"/><path class="d" d="M192.03,1.76c-.4-.4-.75-.61-1.1-.61-.38,0-.7,.2-1.08,.63-3,3.41-8.46,6.99-9.2,6.99-.4,0-.65-.32-.65-.68,0-.25,.13-.47,.43-.63,3.06-1.4,6.59-4.33,8.55-6.59,.5-.58,1.15-.88,1.85-.88,.65,0,1.33,.27,1.93,.85,2.53,2.41,5.56,4.53,8.64,5.94,.27,.13,.4,.38,.4,.63,0,.36-.27,.72-.7,.72-.81,0-6.09-3.41-9.07-6.39Zm-.45,11.15c-2.23,0-4.51-.02-6.16-.05-2.43-.02-2.43-1.18-2.43-3.11,0-1.35,.07-2.71,2.35-2.73,1.67-.02,4.36-.05,6.88-.05,1.63,0,3.21,.02,4.44,.05,1.35,.02,2.26,.75,2.28,1.8,.02,.36,.02,.72,.02,1.13,0,1.71-.02,2.84-2.33,2.91-1.42,.02-3.23,.05-5.06,.05Zm-1.28-4.99c-1.8,0-3.54,0-4.66,.02-1.45,.02-1.45,.77-1.45,2.18,0,.9,.05,1.76,1.48,1.78,1.15,.02,2.86,.05,4.63,.05V7.92Zm4.83,13.58c-1.22,.05-2.75,.05-4.26,.05s-2.96,0-4.11-.05c-2.46-.07-2.46-1.31-2.46-3.59,0-.55,0-1.1,.02-1.58,.05-1.1,.7-1.88,2.37-1.9,1.18-.02,2.73-.05,4.26-.05s3.11,.02,4.26,.05c1.42,.02,2.28,.95,2.33,1.9,.02,.45,.05,.95,.05,1.45,0,.61-.02,1.2-.05,1.67-.07,1.22-.85,1.98-2.43,2.03h.01Zm1.18-4.07c0-1.06,0-1.98-1.43-1.98s-3.61-.02-5.51-.02c-.95,0-1.83,0-2.48,.02-.83,.02-1.31,.5-1.33,1.22,0,.23-.02,.5-.02,.75h10.77Zm-10.77,.96c0,.36,.02,.68,.02,.95,.05,1.13,.68,1.15,5.26,1.15,1.51,0,3.03-.02,4.08-.07,1.4-.05,1.4-.88,1.4-2.03h-10.77Zm2.46-6.79c-.18,0-.3-.05-.4-.23-.4-.68-1-1.35-1.53-1.92-.07-.09-.1-.18-.1-.27,0-.25,.32-.5,.65-.5,.47,0,2.05,1.88,2.05,2.28,0,.36-.38,.65-.68,.65h0Zm-.2-6.24c-.36,0-.52-.25-.52-.52,0-.25,.18-.52,.52-.52h6.46c.36,0,.52,.25,.52,.52,0,.25-.18,.52-.52,.52h-6.46Zm5.16,6.61s-.05-.09-.05-.15c0-.02,0-.07,.02-.09,.47-.77,1.15-1.98,1.53-2.86,.07-.2,.25-.27,.43-.27,.36,0,.72,.3,.72,.63,0,.25-1.28,2.18-1.67,2.75,3.63,0,3.83-.02,3.83-2.01,0-1.33-.07-1.96-1.45-2.01-1.22-.02-3.03-.02-4.83-.02v4.04h1.46Z"/></g></g></g></svg>