<svg width="170" height="20" viewBox="0 0 170 20" fill="none" xmlns="http://www.w3.org/2000/svg">
<g id="Group">
<g id="Group_2">
<g id="Group_3">
<path id="Vector" d="M9.22258 11.1866C9.60114 12.3682 10.1747 13.4464 10.9088 14.3527C12.2395 13.825 13.4785 13.0908 14.683 12.1961C14.7862 12.1158 14.8894 12.0928 15.0041 12.0928C15.3024 12.0928 15.5777 12.3681 15.5777 12.6664C15.5777 12.8614 15.4974 13.022 15.2565 13.1711C14.1553 13.8479 12.836 14.5821 11.5627 15.0639C13.0425 16.5667 15.0271 17.5303 17.3443 17.8859C17.6655 17.9318 17.8261 18.1612 17.8261 18.4136C17.8261 18.7348 17.5737 19.0445 17.1493 19.0445C16.8969 19.0445 10.5073 18.2644 8.16716 11.1751H5.15025V17.0599C6.35475 16.7273 7.44447 16.3372 8.3163 15.9587C8.38512 15.9357 8.46549 15.9128 8.52284 15.9128C8.84404 15.9128 9.07345 16.1652 9.07345 16.4634C9.07345 16.6355 8.97018 16.819 8.69487 16.9452C6.53825 17.8744 1.80059 19.1019 1.12378 19.1019C0.722279 19.1019 0.515761 18.8265 0.515761 18.5512C0.515761 18.2759 0.7108 18.0235 1.04347 17.9662C2.03001 17.817 3.05097 17.6106 3.99163 17.3811V11.1751H0.550208C0.229009 11.1751 0.0683594 10.9457 0.0683594 10.7163C0.0683594 10.4868 0.240481 10.2345 0.550208 10.2345H3.96866C3.94572 9.66088 3.9457 9.02996 3.9457 8.37609C3.9457 6.91923 3.96868 5.35912 3.99163 4.13168C4.01457 2.61746 4.94374 1.84887 6.56121 1.8374C8.04102 1.81446 9.6585 1.81445 11.2416 1.81445C12.4002 1.81445 13.5358 1.81446 14.637 1.8374C14.9697 1.8374 15.1418 2.06683 15.1418 2.3192C15.1418 2.54863 14.9697 2.80099 14.637 2.80099C13.3522 2.77805 11.9413 2.77805 10.5647 2.77805C9.18815 2.77805 7.84597 2.77805 6.66441 2.80099C5.60904 2.82394 5.16172 3.3975 5.15025 4.2808L5.12728 4.57906H13.9832C14.2814 4.57906 14.4306 4.80848 14.4306 5.03791C14.4306 5.26734 14.2814 5.49676 13.9832 5.49676H5.10432C5.08138 6.09327 5.08142 6.70128 5.08142 7.30926H13.9832C14.2814 7.30926 14.4306 7.53868 14.4306 7.76811C14.4306 7.99754 14.2814 8.22696 13.9832 8.22696H5.08142C5.08142 8.92671 5.08138 9.60354 5.10432 10.2115H17.2755C17.5967 10.2115 17.7343 10.4409 17.7343 10.6704C17.7343 10.9227 17.5852 11.1522 17.2755 11.1522H9.22258V11.1866Z" fill="#231815"/>
<path id="Vector_2" d="M21.7385 9.8565C21.0617 11.3707 20.1554 12.9308 19.3524 14.0091C19.2033 14.2042 19.0313 14.2844 18.8477 14.2844C18.5495 14.2844 18.2742 14.0321 18.2742 13.7109C18.2742 13.5847 18.343 13.4356 18.4692 13.2864C19.4786 12.1852 20.9584 9.78767 21.7385 7.78018L21.7156 7.1263L19.4213 7.14923C19.0886 7.14923 18.9166 6.91982 18.9166 6.66745C18.9166 6.41508 19.0886 6.16269 19.4213 6.16269H21.7156L21.6697 3.22601C21.5205 3.2719 19.8343 3.60457 19.4787 3.60457C19.1804 3.60457 19.0198 3.32926 19.0198 3.05395C19.0198 2.85894 19.123 2.67538 19.3524 2.6295C21.0158 2.40007 22.6218 2.05593 24.3081 1.34471C24.354 1.32176 24.4113 1.29883 24.4802 1.29883C24.7325 1.29883 25.0079 1.57413 25.0079 1.8265C25.0079 2.1477 24.6752 2.43449 22.7709 2.93923L22.725 6.15122H24.6178C24.939 6.15122 25.0996 6.40361 25.0996 6.63304C25.0996 6.88541 24.9275 7.13775 24.6178 7.13775L22.725 7.11482C22.725 7.9637 22.7021 8.67492 22.7021 9.00759C22.7824 8.8814 22.9545 8.80111 23.1265 8.80111C23.5051 8.80111 25.1914 10.2809 25.1914 10.843C25.1914 11.1642 24.939 11.4166 24.6866 11.4166C24.5375 11.4166 24.3884 11.3363 24.2622 11.1413C23.8033 10.4071 23.4133 9.98269 22.7824 9.50089C22.7365 9.47794 22.7136 9.43205 22.7021 9.42058C22.7021 11.1069 22.7709 18.7468 22.7709 18.7468C22.7709 19.0795 22.4956 19.2516 22.2203 19.2516C21.9449 19.2516 21.6697 19.0795 21.6697 18.7239L21.7385 9.84501V9.8565ZM23.7804 18.3338C23.7804 18.2077 23.8492 18.0815 23.9754 18.0012C24.6522 17.5423 25.4323 16.6476 25.8338 15.5922C25.9141 15.3857 26.0861 15.2939 26.2353 15.2939C26.5106 15.2939 26.763 15.5004 26.763 15.7528C26.763 16.2116 25.3291 18.8271 24.2967 18.8271C23.9984 18.8271 23.7919 18.5747 23.7919 18.3224L23.7804 18.3338ZM28.5066 2.79011C28.0478 2.79011 27.6577 2.93923 27.4742 3.37515C27.0497 4.38463 26.1435 5.88739 25.5585 5.88739C25.2602 5.88739 25.0079 5.68089 25.0079 5.42852C25.0079 5.30233 25.0538 5.1991 25.157 5.09586C25.7076 4.54523 26.2927 3.74224 26.5909 2.98512C26.8662 2.26243 27.5774 1.9527 28.3575 1.92976C29.8603 1.88387 32.556 1.70032 34.162 1.34471C34.2079 1.34471 34.2423 1.32176 34.2882 1.32176C34.5864 1.32176 34.7929 1.59708 34.7929 1.84945C34.7929 2.04446 34.6667 2.25095 34.3455 2.29683C32.7166 2.57215 29.6882 2.80158 28.5066 2.80158V2.79011ZM35.1945 11.9902C35.1945 13.1717 34.9994 13.9059 33.3132 13.9288C31.9595 13.9518 30.6173 13.9747 29.2637 13.9747C28.4378 13.9747 27.6004 13.9747 26.7744 13.9518C26.5221 13.9518 26.4188 13.7568 26.4188 13.5732C26.4188 13.3897 26.545 13.1717 26.7974 13.1717C27.8987 13.1947 29.0114 13.1947 30.0667 13.1947C31.1221 13.1947 32.1775 13.1947 33.0837 13.1717C33.5885 13.1488 34.0932 13.0226 34.1391 12.449C34.162 12.3228 34.162 12.1508 34.162 11.9672H25.6846C25.4323 11.9672 25.3061 11.7722 25.3061 11.6116C25.3061 11.4051 25.4323 11.2101 25.6846 11.2101H34.162C34.162 10.7054 34.0932 10.0515 33.0837 10.0515H26.9006C26.6482 10.0515 26.4991 9.85647 26.4991 9.64999C26.4991 9.45497 26.6482 9.27144 26.9006 9.27144C32.361 9.27144 33.0837 9.29437 33.3132 9.29437C34.5979 9.31732 35.1256 9.86796 35.1715 10.6021C35.1715 10.7742 35.1945 10.9807 35.1945 11.1872H36.5825C36.8578 11.1872 36.984 11.3822 36.984 11.5887C36.984 11.7837 36.8578 11.9902 36.5825 11.9902H35.1945ZM26.2353 8.13579C26.0058 8.13579 25.8796 7.94075 25.8796 7.75721C25.8796 7.55073 26.0058 7.35571 26.2582 7.35571L30.3765 7.37867V5.9218L27.3365 5.94475C27.1071 5.94475 26.9809 5.74973 26.9809 5.56619C26.9809 5.3597 27.1071 5.16468 27.3595 5.16468H30.6518C30.6518 5.16468 30.6059 5.14175 30.6059 5.1188C30.4109 4.53376 30.2274 4.18962 29.8832 3.68488C29.8373 3.61605 29.8258 3.58163 29.8258 3.5128C29.8258 3.31779 30.0782 3.15719 30.3305 3.15719C30.9156 3.15719 31.4089 4.3961 31.5121 4.78612C31.5351 4.83201 31.5351 4.88937 31.5351 4.93526C31.5351 5.01556 31.5121 5.10733 31.4548 5.16468H34.2652C34.5176 5.16468 34.6438 5.3597 34.6438 5.54324C34.6438 5.74973 34.5176 5.94475 34.2652 5.94475L31.3974 5.9218V7.37867L35.401 7.35571C35.6533 7.35571 35.7795 7.55074 35.7795 7.73428C35.7795 7.94077 35.6533 8.13579 35.401 8.13579H26.2467H26.2353ZM28.6787 17.0949C28.7016 17.5997 28.7475 18.0815 30.5944 18.0815C32.0742 18.0815 32.8084 17.9323 32.8313 16.7508C32.8313 16.4296 33.0608 16.3034 33.2902 16.3034C33.5655 16.3034 33.8638 16.4984 33.8638 16.7623C33.8638 18.5289 32.6593 18.9762 30.5715 18.9762C28.2313 18.9762 27.6578 18.4715 27.6578 17.1408V15.9822C27.6578 15.0301 27.6807 14.8007 28.1625 14.8007C28.4149 14.8007 28.6673 14.9498 28.6673 15.2251V17.0835L28.6787 17.0949ZM31.4203 16.3149C30.8697 15.6036 30.1356 15.1563 29.6538 14.9039C29.5276 14.8351 29.4817 14.7548 29.4817 14.6515C29.4817 14.445 29.6881 14.1927 29.9635 14.1927C30.4223 14.1927 32.2234 15.3972 32.2234 15.9822C32.2234 16.2805 31.9939 16.487 31.7645 16.487C31.6383 16.487 31.5121 16.441 31.4318 16.3149H31.4203ZM35.5501 5.45147C35.0224 4.67141 34.2194 4.01755 33.7376 3.66193C33.6343 3.58163 33.5885 3.48986 33.5885 3.40956C33.5885 3.18013 33.8408 2.98512 34.0932 2.98512C34.5521 2.98512 36.4333 4.62554 36.4333 5.1188C36.4333 5.41706 36.1581 5.64648 35.9057 5.64648C35.7795 5.64648 35.6533 5.57765 35.5501 5.45147ZM36.0548 18.0012C35.5501 17.072 34.793 16.3723 34.0473 15.8446C33.8982 15.7413 33.8408 15.6151 33.8408 15.489C33.8408 15.2825 34.0473 15.0875 34.3226 15.0875C34.9765 15.0875 37.0414 17.049 37.0414 17.7259C37.0414 18.0585 36.7889 18.2994 36.4907 18.2994C36.3416 18.2994 36.1695 18.2191 36.0434 18.0012H36.0548Z" fill="#231815"/>
<path id="Vector_3" d="M41.5148 10.6597C40.2529 11.8986 38.624 13.0687 38.1651 13.0687C37.8439 13.0687 37.5916 12.7934 37.5916 12.518C37.5916 12.323 37.6719 12.1624 37.9128 12.0363C41.6066 10.0517 43.9467 6.30056 43.9467 5.57786C43.9467 5.30255 43.7517 5.15342 43.4649 5.15342C42.226 5.15342 39.9891 5.22225 38.6928 5.25666H38.6699C38.3487 5.25666 38.1881 5.02724 38.1881 4.77487C38.1881 4.54544 38.3601 4.29307 38.6699 4.29307L41.4804 4.22424L41.4574 1.65464C41.4574 1.29903 41.7557 1.12695 42.031 1.12695C42.3292 1.12695 42.616 1.29903 42.616 1.65464V4.22424H43.7287C44.6808 4.24719 45.1398 4.68309 45.1398 5.32549C45.1398 6.25467 43.7517 8.19333 42.5472 9.58137C42.5701 11.5659 42.616 18.7585 42.616 18.7585C42.616 19.0797 42.3178 19.2174 42.0425 19.2174C41.7442 19.2174 41.4459 19.0682 41.4459 18.7585L41.5148 10.6597ZM45.6445 12.4148C45.1627 11.738 44.0844 10.912 43.4764 10.5794C43.3502 10.5105 43.2814 10.3844 43.2814 10.2811C43.2814 10.0517 43.4879 9.82229 43.7861 9.82229C44.1876 9.82229 46.654 11.3595 46.654 12.0822C46.654 12.4148 46.3787 12.6672 46.0804 12.6672C45.9313 12.6672 45.7592 12.5869 45.633 12.4148H45.6445ZM44.7382 18.2193C44.3826 18.2193 44.2106 17.9669 44.2106 17.7146C44.2106 17.4622 44.3826 17.2099 44.7382 17.2099L49.671 17.2328L49.648 8.92752L46.0804 8.95045C45.7477 8.95045 45.5527 8.69809 45.5527 8.42278C45.5527 8.17041 45.7477 7.91803 46.0804 7.91803L49.648 7.94096V1.97584C49.648 1.62023 49.9463 1.42522 50.2216 1.42522C50.5198 1.42522 50.8181 1.62023 50.8181 1.97584L50.7951 7.94096L54.6954 7.91803C55.0511 7.91803 55.246 8.17041 55.246 8.42278C55.246 8.69809 55.0511 8.95045 54.6954 8.95045L50.7951 8.92752V17.2328L55.5787 17.2099C55.9343 17.2099 56.1064 17.4622 56.1064 17.7146C56.1064 17.9669 55.9343 18.2193 55.5787 18.2193H44.7382Z" fill="#231815"/>
<path id="Vector_4" d="M59.9263 10.6809C58.7448 11.8854 57.3797 12.9408 56.9782 12.9408C56.657 12.9408 56.4275 12.6655 56.4275 12.3672C56.4275 12.1952 56.5078 12.0345 56.7258 11.9083C60.4425 9.67142 62.0026 6.32178 62.0026 5.77116C62.0026 5.51878 61.8535 5.41554 61.6011 5.41554C60.4884 5.41554 58.9054 5.46142 57.7009 5.49584H57.6779C57.3796 5.49584 57.219 5.26641 57.219 5.01404C57.219 4.78461 57.3911 4.53224 57.6779 4.53224C58.4121 4.5093 59.1577 4.48636 59.8689 4.48636L59.846 1.66439C59.846 1.30878 60.1213 1.13672 60.3966 1.13672C60.6719 1.13672 60.9472 1.30878 60.9472 1.66439V4.47488C61.2684 4.47488 61.5553 4.49783 61.8535 4.49783C62.7024 4.52077 63.1383 4.89934 63.1383 5.53027C63.1383 6.66593 61.6011 8.69637 61.0964 9.35024C61.2225 9.41907 63.8839 10.8071 63.8839 11.633C63.8839 11.9542 63.6316 12.2295 63.3563 12.2295C63.2301 12.2295 63.0809 12.1607 62.9777 12.0231C62.4729 11.3233 61.5896 10.6694 60.8899 10.2565C60.9128 12.9522 60.9587 18.8027 60.9587 18.8027C60.9587 19.1239 60.7064 19.2615 60.4311 19.2615C60.1558 19.2615 59.8804 19.0894 59.8804 18.8027L59.9492 10.7268L59.9263 10.6809ZM64.6296 3.33922C64.2969 3.33922 64.1248 3.08685 64.1248 2.83448C64.1248 2.60505 64.2969 2.35268 64.6296 2.35268H74.1164C74.4491 2.35268 74.5982 2.60505 74.5982 2.83448C74.5982 3.08685 74.4491 3.33922 74.1164 3.33922H64.6296ZM72.0745 18.7568C71.3174 18.7797 70.3652 18.8027 69.4131 18.8027C68.461 18.8027 67.5203 18.7797 66.7518 18.7568C65.2719 18.7109 64.5608 17.9538 64.5149 16.7952C64.4919 16.1642 64.4919 15.4645 64.4919 14.7533C64.4919 14.042 64.4919 13.3423 64.5149 12.7114C64.5378 11.7592 65.1228 10.853 66.7518 10.7956C67.5089 10.7727 68.4381 10.7498 69.3673 10.7498C70.2964 10.7498 71.2485 10.7727 72.0515 10.7956C73.6575 10.8415 74.3114 11.7019 74.3458 12.7114C74.3688 13.4111 74.3917 14.2256 74.3917 15.0515C74.3917 15.648 74.3917 16.2331 74.3458 16.7837C74.277 17.8391 73.5658 18.7224 72.063 18.7682L72.0745 18.7568ZM69.264 9.37317C65.6161 9.37317 65.0885 9.29287 65.0885 7.4345C65.0885 5.02551 65.1343 4.94521 69.4591 4.94521C73.4282 4.94521 73.7379 4.94522 73.7379 7.1592C73.7379 9.37318 73.4396 9.37317 69.264 9.37317ZM68.8396 11.633C68.1054 11.633 67.4056 11.633 66.9009 11.656C65.9717 11.6789 65.5472 12.1607 65.5243 12.9408C65.5014 13.3194 65.5014 13.7667 65.5014 14.2256H68.8396V11.633ZM68.8396 15.0745H65.5014C65.5014 15.6021 65.5014 16.1298 65.5243 16.6116C65.5702 17.9194 66.3847 17.9194 68.8396 17.9194V15.0745ZM66.1438 7.7557C66.1438 8.45546 66.5223 8.47841 69.6426 8.47841C72.7628 8.47841 72.6825 8.47842 72.6825 7.17068C72.6825 6.91831 72.6825 6.68885 72.6595 6.56267C72.5907 5.9088 72.3842 5.88588 69.1952 5.88588C66.7288 5.88588 66.1782 5.88588 66.1323 6.58563V7.76718L66.1438 7.7557ZM73.3364 14.237C73.3364 12.4016 73.2561 11.6789 71.8795 11.6675C71.3289 11.6445 70.6176 11.6445 69.872 11.6445V14.237H73.3364ZM69.872 15.0859V17.9308C70.6521 17.9308 71.4092 17.9079 71.9368 17.885C73.2446 17.8161 73.3478 17.082 73.3478 15.0745H69.872V15.0859Z" fill="#231815"/>
<path id="Vector_5" d="M76.0435 17.8857C76.0435 17.6906 76.1467 17.5071 76.422 17.4038C77.0758 17.1285 78.3836 15.8208 78.808 14.8687C78.9113 14.6393 79.0834 14.5475 79.2669 14.5475C79.5881 14.5475 79.8978 14.7998 79.8978 15.0981C79.8978 15.8552 77.4774 18.4133 76.6285 18.4133C76.2729 18.4133 76.032 18.161 76.032 17.8857H76.0435ZM88.4899 4.70502C88.6964 4.78532 88.8685 4.95738 88.8685 5.16387C88.8685 5.43918 87.4346 7.37785 87.0101 7.90553C87.5378 8.35292 88.0884 8.83472 88.3981 9.16739C89.2585 8.19232 90.0844 7.1599 90.5089 6.42573C90.5892 6.2766 90.7383 6.21924 90.8875 6.21924C91.1628 6.21924 91.4381 6.42572 91.4381 6.72398C91.4381 7.30902 88.7767 10.1195 87.3198 11.4732C88.6964 11.347 90.2106 11.1519 91.3692 11.0143C91.1169 10.6816 90.8645 10.3834 90.6465 10.1654C90.5662 10.0851 90.5204 9.97037 90.5204 9.86713C90.5204 9.66065 90.7269 9.46566 90.9678 9.46566C91.5413 9.46566 93.3309 11.6796 93.3309 12.1844C93.3309 12.517 93.0555 12.7694 92.8032 12.7694C92.6311 12.7694 92.4705 12.6891 92.3558 12.4712C92.2296 12.2188 92.0575 11.9664 91.8969 11.714C88.1229 12.3679 85.5876 12.54 85.5532 12.54C85.232 12.54 85.0944 12.3106 85.0944 12.0811C85.0944 11.8747 85.2435 11.6337 85.5189 11.6223C85.668 11.6223 85.7942 11.6223 85.9433 11.5993C86.448 11.1978 87.1018 10.5669 87.7557 9.86713C87.1477 9.21326 85.6221 7.98584 85.2091 7.73347C85.06 7.65317 85.0026 7.52699 85.0026 7.37786C85.0026 7.14843 85.2091 6.91901 85.5074 6.91901C85.7024 6.91901 85.8286 6.96488 86.3562 7.36637C86.838 6.68956 87.6181 5.45065 87.9393 4.87708C87.9852 4.79678 88.0425 4.75091 88.1343 4.70502L84.8879 4.68207L80.9876 4.70502C81.2171 4.77385 81.4121 4.98032 81.4121 5.20975C81.4121 5.54242 79.7028 7.6302 79.4046 7.99729C79.9323 8.42173 80.437 8.90356 80.7123 9.17887C81.5727 8.24969 82.3986 7.28606 82.846 6.56336C82.9263 6.41424 83.0754 6.35689 83.2246 6.35689C83.4769 6.35689 83.7752 6.5634 83.7752 6.8846C83.7752 7.41228 81.2629 9.95891 79.5766 11.4158C80.8843 11.2896 82.2724 11.1175 83.2934 10.9684C83.1213 10.716 82.9607 10.5095 82.7887 10.3375C82.7084 10.2572 82.6624 10.1654 82.6624 10.0851C82.6624 9.8786 82.8919 9.72948 83.1213 9.72948C83.6719 9.72948 84.8535 11.6911 84.8535 12.0697C84.8535 12.3679 84.6011 12.5514 84.3487 12.5514C84.0734 12.5514 83.9702 12.2991 83.6949 11.6911C81.1597 12.1385 77.4888 12.5514 77.1562 12.5514C76.835 12.5514 76.6744 12.322 76.6744 12.0926C76.6744 11.8632 76.8235 11.6452 77.0988 11.6337C77.42 11.6108 77.7986 11.5878 78.1771 11.5534C78.7048 11.1749 79.3587 10.5669 80.0585 9.86713C79.5078 9.25915 77.8674 8.00877 77.4429 7.7564C77.2938 7.6761 77.2365 7.54992 77.2365 7.40079C77.2365 7.17136 77.4315 6.94194 77.7182 6.94194C77.9247 6.94194 78.3263 7.17138 78.7507 7.49258C79.2325 6.86165 80.1617 5.48507 80.5059 4.90003C80.5517 4.81973 80.6091 4.75089 80.7008 4.72795H76.8235C76.5023 4.72795 76.3417 4.47558 76.3417 4.24615C76.3417 3.99378 76.5138 3.76436 76.8235 3.76436L82.5134 3.7873V3.76436C82.1119 2.96136 81.5841 2.38779 81.0105 1.82569C80.9417 1.75686 80.9073 1.67656 80.9073 1.59626C80.9073 1.36684 81.1826 1.11447 81.4809 1.11447C82.0086 1.11447 83.4884 2.82371 83.4884 3.40875C83.4884 3.55787 83.431 3.68406 83.3393 3.7873H86.2301C86.7348 3.03019 87.2166 1.99777 87.4804 1.36684C87.5837 1.09153 87.8016 0.988281 88.0081 0.988281C88.3293 0.988281 88.6161 1.2177 88.6161 1.5389C88.6161 1.99776 87.3886 3.707 87.3313 3.79877L92.9638 3.77582C93.285 3.77582 93.4456 4.00527 93.4456 4.25764C93.4456 4.48706 93.2735 4.73943 92.9638 4.73943H88.5587L88.4899 4.70502ZM85.0485 18.941C81.5268 18.941 81.0565 18.3101 81.0565 16.9794V15.0981C81.0565 13.9968 81.0565 13.6642 81.63 13.6642C81.9053 13.6642 82.1806 13.8362 82.1806 14.1689C82.1806 14.7769 82.1577 16.6123 82.1577 16.8647C82.1577 17.8168 82.7313 17.9774 85.0944 17.9774C87.6067 17.9774 88.2605 17.6562 88.2834 16.3485C88.2834 16.0158 88.5588 15.8667 88.8111 15.8667C89.1094 15.8667 89.4191 16.0617 89.4191 16.3714C89.4191 18.6542 87.7328 18.9296 85.0485 18.9296V18.941ZM83.4196 13.5036C83.4196 13.2742 83.649 12.9988 83.9702 12.9988C84.1996 12.9988 87.2166 14.5016 87.2166 15.339C87.2166 15.6373 86.9642 15.9126 86.666 15.9126C86.5398 15.9126 86.3906 15.8437 86.2645 15.7061C85.6106 14.949 84.4291 14.2263 83.649 13.8477C83.4769 13.7789 83.4196 13.6412 83.4196 13.5151V13.5036ZM92.6999 17.4956C92.046 16.4403 90.7383 15.5111 90.0386 15.0752C89.8895 14.9949 89.832 14.8687 89.832 14.7425C89.832 14.513 90.0844 14.2607 90.4056 14.2607C90.9906 14.2607 93.7553 16.3255 93.7553 17.1515C93.7553 17.5071 93.457 17.7595 93.1473 17.7595C92.9752 17.7595 92.8146 17.6906 92.6999 17.5071V17.4956Z" fill="#231815"/>
<path id="Vector_6" d="M95.8319 12.7479C95.5107 12.7479 95.373 12.5184 95.373 12.289C95.373 12.0366 95.5222 11.8072 95.8548 11.8072L100.329 11.8302C100.03 11.3254 99.5487 10.7174 99.216 10.3503C99.1472 10.27 99.1127 10.1783 99.1127 10.098C99.1127 9.86854 99.388 9.61616 99.6863 9.61616C100.386 9.61616 101.441 11.5778 101.441 11.8302L103.3 11.8531V8.93935L95.8548 8.96231C95.5336 8.96231 95.396 8.73286 95.396 8.50343C95.396 8.25106 95.5451 8.02165 95.8778 8.02165L103.3 8.06755V6.48449L98 6.50742C97.7018 6.50742 97.5412 6.27799 97.5412 6.06004C97.5412 5.83061 97.7133 5.61265 98 5.61265L103.3 5.6356V4.12137H96.8873C96.5661 4.12137 96.4284 3.89194 96.4284 3.67398C96.4284 3.44455 96.5776 3.21513 96.8873 3.21513H101.361C101.006 2.53832 100.512 2.11387 100.008 1.63208C99.9272 1.55178 99.9043 1.46001 99.9043 1.40265C99.9043 1.15028 100.18 0.920854 100.489 0.920854C101.017 0.920854 102.428 2.54979 102.428 3.03159C102.428 3.10042 102.428 3.15777 102.405 3.2266L103.839 3.24955L105.296 3.2266C105.743 2.57273 106.122 1.7468 106.374 1.13881C106.477 0.886443 106.695 0.783203 106.902 0.783203C107.234 0.783203 107.556 1.01263 107.556 1.33383C107.556 1.52884 107.097 2.32036 106.42 3.2266H110.802C111.123 3.2266 111.284 3.45603 111.284 3.67398C111.284 3.90341 111.112 4.13285 110.802 4.13285H104.367V5.64706L109.678 5.62412C109.976 5.62412 110.125 5.85354 110.125 6.0715C110.125 6.30093 109.976 6.5189 109.678 6.5189L104.367 6.49594V8.07899L111.857 8.03313C112.179 8.03313 112.339 8.28549 112.339 8.51491C112.339 8.74434 112.19 8.97376 111.88 8.97376L104.367 8.95083V11.8646L106.305 11.8416C106.661 11.291 107.062 10.3847 107.257 9.90294C107.338 9.67351 107.556 9.58175 107.762 9.58175C108.037 9.58175 108.347 9.77676 108.347 10.0865C108.347 10.1897 108.301 10.465 107.372 11.8416L111.846 11.8187C112.167 11.8187 112.328 12.071 112.328 12.3005C112.328 12.5299 112.179 12.7593 111.869 12.7593H95.8434L95.8319 12.7479ZM103.954 18.7359C102.623 18.7359 101.315 18.7359 100.18 18.69C98.803 18.6442 98.1491 18.1853 98.1147 17.3135C98.0918 17.0152 98.0918 16.6137 98.0918 16.281C98.0918 15.306 98.1606 14.2391 100.099 14.2391C101.763 14.2391 103.541 14.2162 105.261 14.2162C106.11 14.2162 106.948 14.2162 107.774 14.2391C109.104 14.2621 109.632 14.916 109.666 15.4781C109.689 15.7534 109.712 16.1319 109.712 16.4875C109.712 17.5888 109.586 18.6212 107.751 18.6786C106.615 18.7245 105.284 18.7244 103.954 18.7244V18.7359ZM108.6 16.4417C108.6 15.6157 108.519 15.1569 107.487 15.1569C106.431 15.1339 105.17 15.1339 103.896 15.1339C102.623 15.1339 101.361 15.1339 100.294 15.1569C99.239 15.1569 99.193 15.5813 99.193 16.5678C99.193 16.7743 99.1931 16.9693 99.216 17.1185C99.2848 17.7723 99.4913 17.7723 104.321 17.7723C108.141 17.7723 108.496 17.7494 108.565 17.0955C108.588 16.9005 108.611 16.6711 108.611 16.4417H108.6Z" fill="#231815"/>
<path id="Vector_7" d="M125.783 11.4389C127.447 13.0793 129.328 14.1806 131.542 14.8115C131.817 14.8918 131.92 15.1098 131.92 15.3392C131.92 15.6604 131.714 15.9702 131.312 15.9702C130.888 15.9702 127.584 14.8574 124.625 11.4389H120.954C118.442 14.5133 114.92 16.3143 114.209 16.3143C113.853 16.3143 113.635 16.0619 113.635 15.7866C113.635 15.5801 113.761 15.3622 114.037 15.2589C116.446 14.3986 118.338 13.022 119.726 11.4389L114.392 11.4848C114.071 11.4848 113.91 11.2325 113.91 11.0031C113.91 10.7507 114.082 10.5212 114.392 10.5212L118.843 10.5442V4.33816L115.425 4.36111C115.103 4.36111 114.943 4.10874 114.943 3.87931C114.943 3.62694 115.115 3.39751 115.425 3.39751H118.843V1.36707C118.843 1.06881 119.118 0.919686 119.394 0.919686C119.669 0.919686 119.944 1.06881 119.944 1.36707V3.40898H125.623V1.36707C125.623 1.04587 125.898 0.908203 126.173 0.908203C126.426 0.908203 126.701 1.05734 126.701 1.36707V3.39751H130.223C130.555 3.39751 130.704 3.62694 130.704 3.87931C130.704 4.10874 130.555 4.36111 130.223 4.36111L126.701 4.33816V10.5442L131.255 10.5212C131.588 10.5212 131.737 10.7736 131.737 11.0031C131.737 11.2554 131.588 11.4848 131.278 11.4848L125.795 11.4389H125.783ZM116.078 18.5053C115.757 18.5053 115.62 18.2759 115.62 18.0235C115.62 17.7941 115.769 17.5647 116.078 17.5647L122.262 17.5876V15.3507L118.797 15.3737C118.476 15.3737 118.315 15.1442 118.315 14.9148C118.315 14.6854 118.487 14.4559 118.797 14.4559H122.262L122.239 12.9532C122.239 12.6205 122.514 12.4484 122.812 12.4484C123.087 12.4484 123.363 12.6205 123.363 12.9532L123.34 14.4559H126.862C127.183 14.4559 127.32 14.6854 127.32 14.9148C127.32 15.1442 127.171 15.3737 126.862 15.3737L123.34 15.3507V17.5876L129.672 17.5647C129.993 17.5647 130.131 17.7941 130.131 18.0465C130.131 18.2759 129.982 18.5053 129.672 18.5053H116.09H116.078ZM125.611 4.32669L122.824 4.30374L119.933 4.32669V5.80649H125.611V4.32669ZM125.611 6.60949H119.933V8.12372H125.611V6.60949ZM125.611 8.92673H119.933V10.5327L122.801 10.5557L125.611 10.5327V8.92673Z" fill="#231815"/>
<path id="Vector_8" d="M141.763 2.49238C141.488 2.49238 141.19 2.66444 140.903 3.043C138.345 6.2894 134.192 9.662 133.389 9.662C133.01 9.662 132.758 9.38667 132.758 9.07695C132.758 8.87046 132.884 8.6525 133.16 8.50338C135.729 7.17269 138.517 4.38516 140.157 2.24C140.582 1.71232 141.109 1.41406 141.671 1.41406C142.233 1.41406 142.784 1.68938 143.312 2.24C145.445 4.52281 147.808 6.56471 150.424 7.89539C150.653 8.02158 150.757 8.2166 150.757 8.40014C150.757 8.73281 150.458 9.07695 150.08 9.07695C149.277 9.07695 144.872 5.48641 142.681 3.043C142.36 2.66444 142.05 2.49238 141.752 2.49238H141.763ZM133.871 18.1623C133.538 18.1623 133.366 17.9099 133.366 17.6576C133.366 17.4281 133.538 17.1757 133.871 17.1757L141.235 17.1987V11.8645L135.477 11.8875C135.144 11.8875 134.972 11.6351 134.972 11.3827C134.972 11.1303 135.144 10.878 135.477 10.878L141.235 10.9009V8.13632L138.195 8.15925C137.863 8.15925 137.691 7.92981 137.691 7.67743C137.691 7.44801 137.863 7.19566 138.195 7.19566H145.514C145.847 7.19566 146.019 7.42506 146.019 7.67743C146.019 7.90686 145.847 8.15925 145.491 8.15925L142.348 8.13632V10.9009L148.13 10.878C148.462 10.878 148.612 11.1303 148.612 11.3827C148.612 11.6351 148.462 11.8875 148.13 11.8875L142.348 11.8645V17.1987H143.702C144.402 16.1663 145.067 14.6521 145.457 13.4246C145.537 13.1493 145.755 13.0231 145.985 13.0231C146.306 13.0231 146.615 13.2525 146.615 13.5967C146.615 13.7917 145.686 15.891 144.78 17.1987L149.713 17.1757C150.045 17.1757 150.195 17.4281 150.195 17.6576C150.195 17.9099 150.045 18.1623 149.713 18.1623H133.871ZM138.195 16.0745C137.817 15.1912 137.083 14.3194 136.589 13.8605C136.509 13.7802 136.486 13.6885 136.486 13.6082C136.486 13.3787 136.762 13.1493 137.06 13.1493C137.633 13.1493 139.228 15.1568 139.228 15.7877C139.228 16.1204 138.93 16.3957 138.643 16.3957C138.448 16.3957 138.287 16.3154 138.195 16.0745Z" fill="#231815"/>
<path id="Vector_9" d="M161.747 2.21615C161.414 1.88348 161.116 1.7114 160.817 1.7114C160.496 1.7114 160.232 1.88347 159.911 2.23908C157.376 5.10693 152.776 8.12391 152.168 8.12391C151.835 8.12391 151.617 7.8486 151.617 7.55034C151.617 7.34386 151.721 7.14885 151.973 7.02267C154.543 5.84111 157.525 3.37475 159.166 1.4705C159.59 0.988698 160.141 0.736328 160.726 0.736328C161.276 0.736328 161.838 0.965751 162.355 1.44755C164.488 3.47799 167.035 5.26754 169.627 6.4491C169.857 6.55234 169.96 6.77029 169.96 6.97677C169.96 7.27503 169.731 7.58475 169.375 7.58475C168.698 7.58475 164.247 4.7169 161.735 2.20467L161.747 2.21615ZM161.368 11.5997C159.487 11.5997 157.571 11.5768 156.183 11.5538C154.141 11.5309 154.141 10.5673 154.141 8.93837C154.141 7.8027 154.21 6.65556 156.126 6.64409C157.537 6.62115 159.797 6.59823 161.93 6.59823C163.307 6.59823 164.626 6.62115 165.658 6.64409C166.794 6.66703 167.551 7.27503 167.574 8.15832C167.597 8.45658 167.597 8.76629 167.597 9.11043C167.597 10.5444 167.574 11.4965 165.635 11.5538C164.431 11.5768 162.917 11.5997 161.38 11.5997H161.368ZM160.29 7.40121C158.776 7.40121 157.319 7.4012 156.367 7.42414C155.139 7.44708 155.139 8.07801 155.139 9.25957C155.139 10.0167 155.185 10.7394 156.378 10.7623C157.353 10.7853 158.787 10.8082 160.278 10.8082V7.41269L160.29 7.40121ZM164.362 18.8382C163.33 18.8841 162.045 18.8841 160.772 18.8841C159.498 18.8841 158.282 18.8841 157.307 18.8382C155.242 18.7694 155.242 17.7369 155.242 15.8212C155.242 15.3624 155.242 14.892 155.265 14.4905C155.311 13.5613 155.85 12.9075 157.273 12.8845C158.259 12.8616 159.567 12.8386 160.863 12.8386C162.16 12.8386 163.479 12.8616 164.454 12.8845C165.658 12.9075 166.37 13.6875 166.415 14.4905C166.438 14.8691 166.461 15.2935 166.461 15.718C166.461 16.2227 166.438 16.7275 166.415 17.129C166.347 18.1614 165.693 18.7923 164.374 18.8382H164.362ZM165.349 15.3968C165.349 14.5135 165.349 13.7334 164.144 13.7334C162.94 13.7334 161.104 13.7105 159.498 13.7105C158.695 13.7105 157.961 13.7105 157.41 13.7334C156.711 13.7563 156.309 14.1579 156.298 14.7659C156.298 14.9609 156.275 15.1903 156.275 15.3968H165.349ZM156.275 16.1998C156.275 16.498 156.298 16.7733 156.298 17.0028C156.344 17.9549 156.871 17.9778 160.726 17.9778C161.988 17.9778 163.284 17.9549 164.167 17.909C165.349 17.8631 165.349 17.1749 165.349 16.1998H156.275ZM158.34 10.487C158.191 10.487 158.087 10.4411 158.007 10.292C157.674 9.71842 157.158 9.15634 156.722 8.66307C156.653 8.58277 156.642 8.51393 156.642 8.43363C156.642 8.22714 156.917 8.00919 157.193 8.00919C157.594 8.00919 158.925 9.59226 158.925 9.92493C158.925 10.2232 158.604 10.4755 158.351 10.4755L158.34 10.487ZM158.168 5.23311C157.869 5.23311 157.72 5.02663 157.72 4.78573C157.72 4.57925 157.869 4.33835 158.168 4.33835H163.605C163.903 4.33835 164.052 4.54483 164.052 4.78573C164.052 4.99222 163.903 5.23311 163.605 5.23311H158.168ZM162.515 10.7967C162.515 10.7967 162.469 10.7164 162.469 10.6706C162.469 10.6476 162.469 10.6017 162.492 10.5903C162.894 9.93639 163.467 8.9269 163.777 8.18125C163.846 8.00918 163.984 7.95185 164.133 7.95185C164.431 7.95185 164.741 8.20421 164.741 8.47952C164.741 8.68601 163.662 10.3149 163.33 10.7967C166.393 10.7967 166.553 10.7738 166.553 9.11043C166.553 7.99771 166.484 7.47002 165.326 7.42414C164.293 7.4012 162.768 7.40121 161.253 7.40121V10.7967H162.492H162.515Z" fill="#231815"/>
</g>
</g>
</g>
</svg>
