<svg width="25" height="24" viewBox="0 0 25 24" fill="none" xmlns="http://www.w3.org/2000/svg">
<g id="Icon">
<mask id="mask0_2593_9710" style="mask-type:alpha" maskUnits="userSpaceOnUse" x="0" y="0" width="25" height="24">
<rect id="Bounding box" x="0.783203" width="24" height="24" fill="#D9D9D9"/>
</mask>
<g mask="url(#mask0_2593_9710)">
<path id="menu" d="M4.7832 18C4.49987 18 4.26237 17.9042 4.0707 17.7125C3.87904 17.5208 3.7832 17.2833 3.7832 17C3.7832 16.7167 3.87904 16.4792 4.0707 16.2875C4.26237 16.0958 4.49987 16 4.7832 16H20.7832C21.0665 16 21.304 16.0958 21.4957 16.2875C21.6874 16.4792 21.7832 16.7167 21.7832 17C21.7832 17.2833 21.6874 17.5208 21.4957 17.7125C21.304 17.9042 21.0665 18 20.7832 18H4.7832ZM4.7832 13C4.49987 13 4.26237 12.9042 4.0707 12.7125C3.87904 12.5208 3.7832 12.2833 3.7832 12C3.7832 11.7167 3.87904 11.4792 4.0707 11.2875C4.26237 11.0958 4.49987 11 4.7832 11H20.7832C21.0665 11 21.304 11.0958 21.4957 11.2875C21.6874 11.4792 21.7832 11.7167 21.7832 12C21.7832 12.2833 21.6874 12.5208 21.4957 12.7125C21.304 12.9042 21.0665 13 20.7832 13H4.7832ZM4.7832 8C4.49987 8 4.26237 7.90417 4.0707 7.7125C3.87904 7.52083 3.7832 7.28333 3.7832 7C3.7832 6.71667 3.87904 6.47917 4.0707 6.2875C4.26237 6.09583 4.49987 6 4.7832 6H20.7832C21.0665 6 21.304 6.09583 21.4957 6.2875C21.6874 6.47917 21.7832 6.71667 21.7832 7C21.7832 7.28333 21.6874 7.52083 21.4957 7.7125C21.304 7.90417 21.0665 8 20.7832 8H4.7832Z" fill="white"/>
</g>
</g>
</svg>
