<svg width="100" height="16" viewBox="0 0 100 16" fill="none" xmlns="http://www.w3.org/2000/svg">
<path d="M6.55622 14.0158V15.1311C2.9714 14.6625 0.197266 11.5932 0.197266 7.88182C0.197266 4.17048 2.9714 1.10112 6.55622 0.637207V1.75717C3.58527 2.2164 1.30317 4.78435 1.30317 7.88651C1.30317 10.9887 3.58058 13.5566 6.55622 14.0158Z" fill="#E5006E" stroke="#E5006E" stroke-width="0.393627"/>
<path d="M12.3294 9.10926V7.54412L13.3088 6.56474V7.89089C13.3088 7.97055 13.3088 8.0549 13.3041 8.13456L12.3294 9.10926ZM10.4315 5.96493L9.45215 4.98555V3.42041L10.4315 4.39979V5.96493Z" fill="#EA5504" stroke="#EA5504" stroke-width="0.393627"/>
<path d="M9.06352 1.44778V13.8986L9.31656 13.8189C9.81797 13.6643 10.2959 13.4487 10.7317 13.1816L10.8255 13.1254V1.38218C11.2191 1.58368 11.5893 1.81798 11.9314 2.0804V12.2585L12.2828 11.8367C13.1685 10.7636 13.7027 9.38593 13.7027 7.8864V4.0251C14.4056 5.14506 14.8086 6.47121 14.8086 7.89108C14.8086 11.7758 11.7767 14.9529 7.94824 15.1826V1.70551V0.599609C8.32781 0.62304 8.69801 0.674586 9.05415 0.749563V1.44778H9.06352Z" fill="#00ADB2" stroke="#00ADB2" stroke-width="0.393627"/>
<path d="M24.0356 8.44394C24.2136 8.9969 24.4807 9.50299 24.8275 9.92942C25.4508 9.68106 26.0365 9.33429 26.5988 8.92192C26.6504 8.88443 26.6972 8.87037 26.7488 8.87037C26.8894 8.87037 27.0159 8.9969 27.0159 9.13748C27.0159 9.22651 26.9784 9.30617 26.8659 9.37647C26.3505 9.69512 25.7272 10.0372 25.1368 10.2668C25.8303 10.9697 26.7582 11.4243 27.8453 11.593C27.9953 11.6117 28.0749 11.7195 28.0749 11.8413C28.0749 11.9913 27.9578 12.1365 27.7563 12.1365C27.6391 12.1365 24.6401 11.771 23.5435 8.44863H22.1284V11.2087C22.6907 11.0494 23.2061 10.8713 23.6138 10.6932C23.6419 10.6839 23.6841 10.6745 23.7122 10.6745C23.8622 10.6745 23.97 10.7916 23.97 10.9322C23.97 11.0119 23.9184 11.1009 23.7919 11.1618C22.7844 11.5976 20.5585 12.1693 20.2399 12.1693C20.0524 12.1693 19.954 12.0428 19.954 11.9116C19.954 11.7804 20.0431 11.6633 20.2024 11.6351C20.6663 11.5648 21.1396 11.4664 21.5848 11.3587V8.45332H19.9728C19.8228 8.45332 19.7432 8.34554 19.7432 8.23776C19.7432 8.12998 19.8228 8.00814 19.9728 8.00814H21.5754C21.566 7.74104 21.566 7.44582 21.566 7.13654C21.566 6.45238 21.5754 5.72136 21.5848 5.14966C21.5941 4.43738 22.0299 4.08124 22.7891 4.07187C23.4826 4.0625 24.2418 4.0625 24.9822 4.0625C25.5257 4.0625 26.0599 4.0625 26.5754 4.07187C26.7347 4.07187 26.8144 4.17965 26.8144 4.30149C26.8144 4.40927 26.7347 4.5311 26.5754 4.5311C25.9709 4.52173 25.3102 4.52173 24.6682 4.52173C24.0262 4.52173 23.3936 4.52173 22.8406 4.5311C22.3439 4.54048 22.1377 4.80758 22.1284 5.22464L22.119 5.36522H26.2708C26.4114 5.36522 26.477 5.473 26.477 5.58078C26.477 5.68855 26.4067 5.79633 26.2708 5.79633H22.1096C22.1002 6.07281 22.1002 6.35866 22.1002 6.64919H26.2755C26.4161 6.64919 26.4817 6.75697 26.4817 6.86475C26.4817 6.97253 26.4114 7.08031 26.2755 7.08031H22.1002C22.1002 7.40833 22.1002 7.72229 22.1096 8.00814H27.8172C27.9672 8.00814 28.0328 8.11592 28.0328 8.2237C28.0328 8.34085 27.9625 8.45332 27.8172 8.45332H24.0403L24.0356 8.44394Z" fill="#231815"/>
<path d="M29.8975 7.82101C29.5789 8.53329 29.1571 9.26431 28.7776 9.77041C28.7073 9.85944 28.6276 9.89693 28.5386 9.89693C28.398 9.89693 28.2715 9.77978 28.2715 9.62982C28.2715 9.56891 28.2996 9.5033 28.3605 9.43301C28.8338 8.91755 29.5273 7.7929 29.8929 6.851L29.8835 6.54641L28.8057 6.55578C28.6464 6.55578 28.5667 6.44801 28.5667 6.32617C28.5667 6.20433 28.6464 6.08718 28.8057 6.08718H29.8835L29.8647 4.71417C29.7944 4.73292 29.0025 4.89224 28.8385 4.89224C28.6979 4.89224 28.6229 4.76572 28.6229 4.63451C28.6229 4.54547 28.6698 4.45644 28.7823 4.4377C29.5648 4.32992 30.3146 4.17059 31.1065 3.8332C31.1253 3.82383 31.1581 3.81445 31.1862 3.81445C31.3034 3.81445 31.4346 3.94098 31.4346 4.06281C31.4346 4.21277 31.2752 4.34866 30.3849 4.58765L30.3661 6.09187H31.2565C31.4064 6.09187 31.4861 6.20902 31.4861 6.32148C31.4861 6.43863 31.4064 6.56047 31.2565 6.56047L30.3661 6.5511C30.3661 6.94473 30.3568 7.28212 30.3568 7.44145C30.3943 7.38053 30.4739 7.34304 30.5536 7.34304C30.7317 7.34304 31.5236 8.03657 31.5236 8.30368C31.5236 8.45363 31.4064 8.57078 31.2846 8.57078C31.2143 8.57078 31.144 8.53329 31.0878 8.44426C30.8722 8.09749 30.6942 7.90068 30.3943 7.67106C30.3755 7.66169 30.3661 7.64294 30.3568 7.63357C30.3568 8.42551 30.3849 12.0056 30.3849 12.0056C30.3849 12.165 30.2584 12.2446 30.1272 12.2446C29.9959 12.2446 29.8694 12.165 29.8694 11.9963L29.8975 7.83507V7.82101ZM30.8582 11.7948C30.8582 11.7339 30.8863 11.6776 30.9472 11.6354C31.2659 11.4199 31.6314 11.0028 31.8188 10.5061C31.8563 10.4077 31.936 10.3655 32.0063 10.3655C32.1328 10.3655 32.2546 10.4639 32.2546 10.5811C32.2546 10.7966 31.5798 12.0244 31.0972 12.0244C30.9566 12.0244 30.8582 11.9072 30.8582 11.7854V11.7948ZM33.0747 4.50799C32.8591 4.50799 32.681 4.57828 32.592 4.78446C32.3952 5.25775 31.9688 5.96066 31.6923 5.96066C31.5517 5.96066 31.4346 5.86225 31.4346 5.7451C31.4346 5.68418 31.4533 5.63732 31.5048 5.58577C31.7626 5.32804 32.0391 4.95316 32.1796 4.59702C32.3062 4.25963 32.6436 4.11436 33.0091 4.10499C33.712 4.08624 34.9772 3.99721 35.727 3.82851C35.7457 3.82851 35.7645 3.81914 35.7879 3.81914C35.9285 3.81914 36.0269 3.94566 36.0269 4.0675C36.0269 4.15653 35.966 4.25494 35.8207 4.27368C35.0569 4.40021 33.637 4.51267 33.0794 4.51267L33.0747 4.50799ZM36.2096 8.81914C36.2096 9.37209 36.1206 9.71886 35.3287 9.72823C34.696 9.7376 34.0634 9.74697 33.4308 9.74697C33.0466 9.74697 32.6482 9.74698 32.264 9.7376C32.1468 9.7376 32.0953 9.64857 32.0953 9.55953C32.0953 9.4705 32.1562 9.37209 32.2734 9.37209C32.7888 9.38146 33.3137 9.38146 33.8057 9.38146C34.2977 9.38146 34.7944 9.38146 35.2209 9.37209C35.4599 9.36272 35.6942 9.3018 35.7129 9.0347C35.7223 8.97378 35.7223 8.89412 35.7223 8.80508H31.7485C31.6314 8.80508 31.5705 8.71605 31.5705 8.63638C31.5705 8.53798 31.6314 8.44894 31.7485 8.44894H35.7223C35.7223 8.20996 35.6942 7.90536 35.2162 7.90536H32.3202C32.2031 7.90536 32.1328 7.81633 32.1328 7.71792C32.1328 7.62889 32.2031 7.53985 32.3202 7.53985C34.8835 7.53985 35.2162 7.54922 35.3287 7.54922C35.9332 7.5586 36.1815 7.81633 36.2003 8.16309C36.2003 8.24276 36.2096 8.34116 36.2096 8.43957H36.861C36.9875 8.43957 37.0484 8.52861 37.0484 8.62701C37.0484 8.71605 36.9875 8.81445 36.861 8.81445H36.2096V8.81914ZM32.0063 7.01033C31.8985 7.01033 31.8376 6.9213 31.8376 6.83226C31.8376 6.73385 31.8985 6.64482 32.0156 6.64482L33.9463 6.65419V5.97003L32.5217 5.9794C32.4139 5.9794 32.353 5.89037 32.353 5.80133C32.353 5.70293 32.4139 5.61389 32.5311 5.61389H34.0728C34.0728 5.61389 34.0541 5.60452 34.0541 5.59515C33.965 5.31867 33.876 5.15935 33.7167 4.92036C33.6979 4.89224 33.6885 4.86881 33.6885 4.8407C33.6885 4.75166 33.8057 4.672 33.9275 4.672C34.204 4.672 34.4336 5.25775 34.4805 5.43582C34.4899 5.45457 34.4899 5.48268 34.4899 5.50611C34.4899 5.5436 34.4805 5.58577 34.4524 5.61389H35.7691C35.8863 5.61389 35.9472 5.70293 35.9472 5.79196C35.9472 5.89037 35.8863 5.9794 35.7691 5.9794L34.4242 5.97003V6.65419L36.3033 6.64482C36.4205 6.64482 36.4814 6.73385 36.4814 6.82289C36.4814 6.92129 36.4205 7.01033 36.3033 7.01033H32.0109H32.0063ZM33.1543 11.2137C33.1637 11.4527 33.1824 11.6776 34.0541 11.6776C34.7476 11.6776 35.0944 11.6073 35.1037 11.0544C35.1037 10.9044 35.2115 10.8482 35.3193 10.8482C35.4458 10.8482 35.5864 10.9372 35.5864 11.0638C35.5864 11.8932 35.0241 12.1041 34.0447 12.1041C32.9481 12.1041 32.681 11.8651 32.681 11.2418V10.6982C32.681 10.2531 32.6904 10.1453 32.92 10.1453C33.0372 10.1453 33.159 10.2156 33.159 10.3421V11.2137H33.1543ZM34.4383 10.8482C34.1806 10.5108 33.8338 10.3046 33.6089 10.1875C33.548 10.1593 33.5292 10.1172 33.5292 10.0703C33.5292 9.9719 33.6276 9.85475 33.7588 9.85475C33.9744 9.85475 34.8179 10.4171 34.8179 10.6936C34.8179 10.8341 34.7101 10.9325 34.6023 10.9325C34.5414 10.9325 34.4852 10.9138 34.443 10.8529L34.4383 10.8482ZM36.3783 5.75447C36.13 5.38896 35.7551 5.07968 35.5302 4.91567C35.4786 4.87818 35.4599 4.83601 35.4599 4.79852C35.4599 4.69074 35.577 4.60171 35.6989 4.60171C35.9144 4.60171 36.7954 5.3749 36.7954 5.59983C36.7954 5.74041 36.6689 5.84819 36.547 5.84819C36.4861 5.84819 36.4299 5.82008 36.3783 5.75916V5.75447ZM36.6173 11.6401C36.3783 11.2043 36.0222 10.8763 35.6801 10.6326C35.6098 10.5811 35.5817 10.5249 35.5817 10.4639C35.5817 10.3655 35.6801 10.2765 35.8113 10.2765C36.1159 10.2765 37.0859 11.195 37.0859 11.5136C37.0859 11.6729 36.9688 11.7807 36.8282 11.7807C36.7579 11.7807 36.6782 11.7432 36.622 11.6401H36.6173Z" fill="#231815"/>
<path d="M39.1766 8.19606C38.5814 8.78182 37.8223 9.3254 37.6021 9.3254C37.4521 9.3254 37.335 9.19888 37.335 9.06767C37.335 8.97863 37.3724 8.89897 37.4849 8.83805C39.2141 7.91022 40.3153 6.14827 40.3153 5.81087C40.3153 5.68435 40.2262 5.61406 40.0857 5.61406C39.4999 5.61406 38.4549 5.64217 37.8504 5.6656H37.8411C37.6911 5.6656 37.6114 5.55783 37.6114 5.43599C37.6114 5.32821 37.6911 5.20637 37.8411 5.20637L39.1578 5.17826L39.1485 3.97395C39.1485 3.80525 39.289 3.72559 39.4156 3.72559C39.5561 3.72559 39.692 3.80525 39.692 3.97395V5.17826H40.2169C40.662 5.18763 40.8776 5.39381 40.8776 5.69372C40.8776 6.12952 40.2262 7.03861 39.6592 7.68997C39.6686 8.61781 39.6874 11.9918 39.6874 11.9918C39.6874 12.1417 39.5468 12.2073 39.4202 12.2073C39.2797 12.2073 39.1438 12.137 39.1438 11.9918L39.1719 8.19606H39.1766ZM41.1166 9.01612C40.887 8.69747 40.3856 8.31321 40.0997 8.15389C40.0388 8.12577 40.0107 8.06486 40.0107 8.01331C40.0107 7.90553 40.1091 7.79775 40.2497 7.79775C40.4371 7.79775 41.5946 8.5194 41.5946 8.85679C41.5946 9.01612 41.468 9.13327 41.3275 9.13327C41.2572 9.13327 41.1775 9.09578 41.1213 9.01612H41.1166ZM40.6902 11.734C40.5215 11.734 40.4418 11.6169 40.4418 11.495C40.4418 11.3732 40.5215 11.256 40.6902 11.256L43.0051 11.2654L42.9957 7.36664L41.3228 7.37601C41.1635 7.37601 41.0744 7.25886 41.0744 7.12765C41.0744 7.0105 41.1635 6.88866 41.3228 6.88866L42.9957 6.89803V4.11453C42.9957 3.94583 43.1363 3.8568 43.2628 3.8568C43.4034 3.8568 43.5393 3.94583 43.5393 4.11453L43.5299 6.91209L45.3575 6.90272C45.5262 6.90272 45.6152 7.01987 45.6152 7.14171C45.6152 7.26823 45.5262 7.39007 45.3575 7.39007L43.5299 7.38069V11.2795L45.7745 11.2701C45.9432 11.2701 46.0229 11.3873 46.0229 11.5091C46.0229 11.6309 45.9432 11.7481 45.7745 11.7481H40.6902V11.734Z" fill="#231815"/>
<path d="M47.8081 8.21012C47.2551 8.77245 46.6131 9.26917 46.4257 9.26917C46.2757 9.26917 46.168 9.14264 46.168 9.00206C46.168 8.9224 46.2055 8.84274 46.3086 8.78651C48.0471 7.73683 48.7828 6.16701 48.7828 5.90928C48.7828 5.79213 48.7125 5.74058 48.5953 5.74058C48.0705 5.74058 47.3301 5.75933 46.7678 5.77807H46.7584C46.6178 5.77807 46.5429 5.67029 46.5429 5.54845C46.5429 5.44068 46.6225 5.31884 46.7584 5.31884C47.1052 5.30947 47.4519 5.30009 47.7847 5.30009L47.7753 3.97395C47.7753 3.80525 47.9018 3.72559 48.033 3.72559C48.1642 3.72559 48.2907 3.80525 48.2907 3.97395V5.29072C48.4407 5.29072 48.5766 5.30009 48.7172 5.30009C49.1108 5.30947 49.3217 5.48754 49.3217 5.78276C49.3217 6.31696 48.6 7.26823 48.361 7.57282C48.422 7.60094 49.6684 8.25698 49.6684 8.64124C49.6684 8.79119 49.5513 8.91771 49.4201 8.91771C49.3592 8.91771 49.2936 8.8896 49.242 8.81931C49.003 8.49128 48.5906 8.18669 48.2626 7.98988C48.272 9.25511 48.2907 11.9964 48.2907 11.9964C48.2907 12.1464 48.1736 12.212 48.0424 12.212C47.9112 12.212 47.7847 12.1323 47.7847 11.9964L47.8128 8.21012H47.8081ZM50.0152 4.77057C49.8559 4.77057 49.7762 4.65342 49.7762 4.53158C49.7762 4.42381 49.8559 4.30197 50.0152 4.30197H54.4669C54.6263 4.30197 54.6966 4.41912 54.6966 4.53158C54.6966 4.64874 54.6263 4.77057 54.4669 4.77057H50.0152ZM53.5063 12.0011C53.1502 12.0105 52.705 12.0199 52.2598 12.0199C51.8146 12.0199 51.3695 12.0105 51.0133 12.0011C50.3198 11.9824 49.9871 11.6262 49.9637 11.0827C49.9543 10.7874 49.9543 10.4594 49.9543 10.122C49.9543 9.78463 49.9543 9.46129 49.9637 9.16139C49.973 8.71621 50.2495 8.28979 51.0133 8.26167C51.3695 8.2523 51.8053 8.24293 52.2411 8.24293C52.6769 8.24293 53.122 8.2523 53.4969 8.26167C54.2467 8.28041 54.556 8.6881 54.5747 9.16139C54.5841 9.48941 54.5935 9.87367 54.5935 10.2579C54.5935 10.5344 54.5935 10.8109 54.5747 11.0686C54.5466 11.5606 54.2092 11.9777 53.5063 11.9964V12.0011ZM52.1895 7.60094C50.4791 7.60094 50.2308 7.56345 50.2308 6.69185C50.2308 5.56251 50.2495 5.52502 52.2786 5.52502C54.1389 5.52502 54.2842 5.52502 54.2842 6.56532C54.2842 7.60562 54.1436 7.60562 52.1895 7.60562V7.60094ZM51.9927 8.65998C51.6459 8.65998 51.3179 8.65998 51.0836 8.66935C50.6478 8.67873 50.451 8.90834 50.4416 9.27385C50.4323 9.45192 50.4323 9.65811 50.4323 9.87835H51.9927V8.65998ZM51.9927 10.272H50.4323C50.4323 10.5203 50.4323 10.7687 50.4416 10.9936C50.4604 11.6075 50.8493 11.6075 51.9927 11.6075V10.272ZM50.7275 6.8418C50.7275 7.16982 50.9056 7.17919 52.3676 7.17919C53.8296 7.17919 53.7922 7.17919 53.7922 6.56532C53.7922 6.44817 53.7921 6.33571 53.7828 6.27948C53.7547 5.97488 53.6563 5.96083 52.1614 5.96083C51.004 5.96083 50.7462 5.96083 50.7275 6.28885V6.8418ZM54.1014 9.87835C54.1014 9.01612 54.0639 8.68341 53.4173 8.66935C53.1595 8.65998 52.8221 8.65998 52.4801 8.65998V9.87835H54.1014ZM52.4801 10.272V11.6075C52.8456 11.6075 53.2017 11.5981 53.4501 11.5888C54.0639 11.5606 54.1108 11.2139 54.1108 10.272H52.4801Z" fill="#231815"/>
<path d="M55.3621 11.5884C55.3621 11.4994 55.4137 11.4104 55.5402 11.3588C55.8448 11.2323 56.4586 10.6184 56.6555 10.1733C56.707 10.0655 56.782 10.0233 56.871 10.0233C57.021 10.0233 57.1662 10.1405 57.1662 10.281C57.1662 10.6372 56.0275 11.8321 55.6339 11.8321C55.4652 11.8321 55.3574 11.715 55.3574 11.5838L55.3621 11.5884ZM61.1962 5.40756C61.2946 5.44505 61.3743 5.52471 61.3743 5.62312C61.3743 5.74964 60.7042 6.66342 60.5027 6.90709C60.7511 7.11328 61.0088 7.34289 61.1541 7.50222C61.5617 7.04767 61.946 6.56501 62.1428 6.21824C62.1803 6.14795 62.2506 6.11984 62.3209 6.11984C62.4474 6.11984 62.5786 6.21824 62.5786 6.35882C62.5786 6.6353 61.3321 7.95208 60.648 8.58469C61.2899 8.52377 62.0022 8.43474 62.5458 8.36914C62.4287 8.20981 62.3068 8.07391 62.2084 7.97551C62.1709 7.93802 62.1475 7.88647 62.1475 7.83493C62.1475 7.73652 62.2459 7.64749 62.3537 7.64749C62.6208 7.64749 63.4596 8.68778 63.4596 8.92209C63.4596 9.08141 63.3331 9.19856 63.2112 9.19856C63.1316 9.19856 63.0519 9.16107 63.005 9.05798C62.9441 8.94083 62.8645 8.81899 62.7895 8.70184C61.0182 9.00644 59.8326 9.0861 59.8138 9.0861C59.6639 9.0861 59.5983 8.97832 59.5983 8.87054C59.5983 8.77213 59.6686 8.66435 59.7951 8.65498C59.8654 8.65498 59.9216 8.65498 59.9919 8.64561C60.2309 8.45817 60.5355 8.16295 60.8401 7.83493C60.5542 7.53033 59.842 6.95395 59.6451 6.8368C59.5749 6.79931 59.5467 6.73839 59.5467 6.6681C59.5467 6.56032 59.6451 6.45255 59.7857 6.45255C59.8748 6.45255 59.9357 6.47129 60.1794 6.65873C60.409 6.34008 60.7745 5.75901 60.9197 5.49191C60.9385 5.45442 60.9713 5.43099 61.0088 5.41225L59.4858 5.40287L57.6583 5.41225C57.766 5.44036 57.8551 5.53877 57.8551 5.65123C57.8551 5.81056 57.0538 6.78994 56.9132 6.95864C57.1615 7.15545 57.3959 7.38507 57.5271 7.51159C57.9301 7.07579 58.319 6.62124 58.5252 6.28385C58.5627 6.21356 58.633 6.18544 58.7033 6.18544C58.8204 6.18544 58.961 6.28385 58.961 6.4338C58.961 6.68216 57.7848 7.8771 56.9929 8.56126C57.6067 8.50034 58.2581 8.42068 58.7314 8.35508C58.6517 8.23793 58.572 8.13952 58.4924 8.05986C58.4549 8.02237 58.4315 7.98019 58.4315 7.94271C58.4315 7.8443 58.5392 7.77401 58.647 7.77401C58.9048 7.77401 59.4577 8.69247 59.4577 8.87054C59.4577 9.01112 59.3406 9.10016 59.2187 9.10016C59.0922 9.10016 59.0406 8.98301 58.9141 8.69247C57.7286 8.89866 56.0088 9.10016 55.8495 9.10016C55.6995 9.10016 55.6198 8.99238 55.6198 8.8846C55.6198 8.77682 55.6901 8.67841 55.8167 8.66904C55.9666 8.65967 56.1447 8.6503 56.3227 8.63155C56.5711 8.45348 56.8757 8.16764 57.2037 7.83961C56.946 7.55376 56.1775 6.96801 55.976 6.85086C55.9057 6.81337 55.8776 6.75245 55.8776 6.68216C55.8776 6.57438 55.9666 6.4666 56.1072 6.4666C56.2056 6.4666 56.393 6.57438 56.5899 6.72434C56.8195 6.42912 57.2506 5.78713 57.4099 5.50597C57.4287 5.46848 57.4615 5.43568 57.4989 5.4263H55.6808C55.5308 5.4263 55.4511 5.30915 55.4511 5.19669C55.4511 5.07954 55.5308 4.96707 55.6808 4.96707L58.3518 4.97644V4.96707C58.1644 4.59219 57.916 4.32509 57.6489 4.05798C57.6208 4.02986 57.5974 3.98769 57.5974 3.9502C57.5974 3.84242 57.7239 3.72059 57.8645 3.72059C58.1128 3.72059 58.8017 4.5219 58.8017 4.79837C58.8017 4.86867 58.7735 4.9249 58.7314 4.97644H60.0856C60.3246 4.62031 60.5496 4.13764 60.6714 3.83774C60.7182 3.71121 60.8213 3.65967 60.9197 3.65967C61.0697 3.65967 61.2056 3.76745 61.2056 3.9174C61.2056 4.13296 60.6339 4.93427 60.6011 4.97644L63.2393 4.96707C63.3893 4.96707 63.469 5.07485 63.469 5.19669C63.469 5.30447 63.3893 5.4263 63.2393 5.4263H61.1728L61.1962 5.40756ZM59.5842 12.0852C57.9347 12.0852 57.7145 11.7899 57.7145 11.1667V10.2857C57.7145 9.77026 57.7145 9.61093 57.9816 9.61093C58.1081 9.61093 58.2393 9.6906 58.2393 9.84992C58.2393 10.1358 58.23 10.998 58.23 11.1152C58.23 11.5603 58.4971 11.64 59.603 11.64C60.7792 11.64 61.0884 11.49 61.0978 10.8762C61.0978 10.7168 61.2243 10.6465 61.3462 10.6465C61.4868 10.6465 61.632 10.7356 61.632 10.8855C61.632 11.954 60.8401 12.0805 59.5842 12.0805V12.0852ZM58.8204 9.53596C58.8204 9.42818 58.9282 9.29697 59.0781 9.29697C59.1859 9.29697 60.6011 9.99988 60.6011 10.3935C60.6011 10.5341 60.4839 10.6606 60.3434 10.6606C60.2824 10.6606 60.2168 10.6325 60.1559 10.5622C59.8513 10.2061 59.2937 9.86867 58.9282 9.6906C58.8485 9.66248 58.8204 9.59219 58.8204 9.53127V9.53596ZM63.1737 11.4057C62.8691 10.909 62.2553 10.4779 61.9272 10.267C61.857 10.2295 61.8288 10.1686 61.8288 10.1077C61.8288 9.99988 61.946 9.87804 62.0959 9.87804C62.3724 9.87804 63.6704 10.848 63.6704 11.2323C63.6704 11.401 63.5299 11.5182 63.3846 11.5182C63.3049 11.5182 63.2253 11.49 63.1784 11.401L63.1737 11.4057Z" fill="#231815"/>
<path d="M64.6404 9.17549C64.4904 9.17549 64.4248 9.06771 64.4248 8.95993C64.4248 8.84278 64.4951 8.73032 64.6544 8.73032L66.7491 8.73969C66.6085 8.5007 66.3836 8.21485 66.2242 8.04615C66.1961 8.00867 66.1727 7.96649 66.1727 7.929C66.1727 7.82123 66.2992 7.69939 66.4398 7.69939C66.7678 7.69939 67.2599 8.61785 67.2599 8.73969L68.1315 8.74906V7.38542L64.6404 7.3948C64.4904 7.3948 64.4248 7.28702 64.4248 7.17924C64.4248 7.06209 64.4951 6.94962 64.6544 6.94962L68.1361 6.96837V6.22797L65.6526 6.23734C65.512 6.23734 65.437 6.12957 65.437 6.03116C65.437 5.92338 65.5167 5.82497 65.6526 5.82497L68.1361 5.83435V5.12207H65.1277C64.9778 5.12207 64.9122 5.01429 64.9122 4.91588C64.9122 4.8081 64.9824 4.70032 65.1277 4.70032H67.2224C67.0537 4.38167 66.8287 4.18486 66.5898 3.95993C66.5523 3.92244 66.5382 3.88027 66.5382 3.85215C66.5382 3.735 66.6647 3.62254 66.8147 3.62254C67.063 3.62254 67.7238 4.38636 67.7238 4.61129C67.7238 4.63941 67.7238 4.67221 67.7144 4.70032L68.3845 4.7097L69.0687 4.70032C69.2749 4.39573 69.4529 4.00679 69.5748 3.72094C69.6216 3.60379 69.7247 3.55225 69.8231 3.55225C69.9824 3.55225 70.1277 3.66003 70.1277 3.80998C70.1277 3.89901 69.9122 4.2739 69.5935 4.70032H71.6507C71.8006 4.70032 71.8803 4.8081 71.8803 4.90651C71.8803 5.01429 71.8006 5.12207 71.6507 5.12207H68.6329V5.83435L71.1258 5.82497C71.2664 5.82497 71.332 5.93275 71.332 6.03116C71.332 6.13894 71.2617 6.23734 71.1258 6.23734L68.6329 6.22797V6.96837L72.1427 6.94962C72.2927 6.94962 72.3723 7.06677 72.3723 7.17924C72.3723 7.2917 72.302 7.3948 72.1568 7.3948L68.6376 7.38542V8.74906L69.5466 8.73969C69.7153 8.48196 69.9028 8.05553 69.9918 7.8306C70.0293 7.72282 70.1324 7.68064 70.2308 7.68064C70.3573 7.68064 70.5073 7.76968 70.5073 7.91963C70.5073 7.97118 70.4885 8.0977 70.0527 8.73969L72.1474 8.73032C72.2974 8.73032 72.377 8.84747 72.377 8.95993C72.377 9.0724 72.3067 9.17549 72.1615 9.17549H64.645H64.6404ZM68.4454 11.9824C67.8222 11.9824 67.2083 11.9824 66.6741 11.9637C66.0321 11.9449 65.7228 11.7247 65.7041 11.3217C65.6947 11.1811 65.6947 10.9937 65.6947 10.839C65.6947 10.3845 65.7228 9.87839 66.6319 9.87839C67.4145 9.87839 68.2439 9.86902 69.0546 9.86902C69.4482 9.86902 69.8465 9.86902 70.2308 9.87839C70.854 9.88777 71.1024 10.197 71.1212 10.4641C71.1305 10.5907 71.1399 10.7687 71.1399 10.9374C71.1399 11.4529 71.079 11.9356 70.2214 11.9637C69.6872 11.9824 69.064 11.9824 68.4407 11.9824H68.4454ZM70.6197 10.9046C70.6197 10.5204 70.5823 10.3001 70.0949 10.3001C69.6029 10.2908 69.0078 10.2908 68.4126 10.2908C67.8175 10.2908 67.2271 10.2908 66.721 10.3001C66.2242 10.3001 66.2055 10.497 66.2055 10.9609C66.2055 11.0593 66.2055 11.1483 66.2149 11.2186C66.243 11.5232 66.3414 11.5232 68.6094 11.5232C70.3995 11.5232 70.5682 11.5138 70.5963 11.2045C70.6057 11.1155 70.6151 11.0077 70.6151 10.9L70.6197 10.9046Z" fill="#231815"/>
<path d="M78.6799 8.56623C79.4624 9.33942 80.3434 9.8502 81.379 10.1501C81.5055 10.1876 81.5571 10.2907 81.5571 10.3985C81.5571 10.5484 81.4587 10.6937 81.2712 10.6937C81.0744 10.6937 79.5187 10.1688 78.1363 8.56623H76.4165C75.2403 10.0095 73.5861 10.8483 73.2534 10.8483C73.0847 10.8483 72.9863 10.7312 72.9863 10.6C72.9863 10.5016 73.0472 10.4032 73.1738 10.3516C74.3031 9.94392 75.1935 9.30193 75.8448 8.56154L73.3425 8.58028C73.1925 8.58028 73.1129 8.46313 73.1129 8.35067C73.1129 8.23352 73.1925 8.12105 73.3425 8.12105L75.4278 8.13042V5.22508L73.8251 5.23445C73.6752 5.23445 73.5955 5.1173 73.5955 5.00484C73.5955 4.88769 73.6752 4.77522 73.8251 4.77522H75.4278V3.82396C75.4278 3.68338 75.5543 3.61777 75.6855 3.61777C75.8167 3.61777 75.9432 3.68806 75.9432 3.82396V4.78459H78.6049V3.82396C78.6049 3.674 78.7314 3.6084 78.8626 3.6084C78.9798 3.6084 79.111 3.67869 79.111 3.82396V4.77522H80.7605C80.9198 4.77522 80.9901 4.883 80.9901 5.00484C80.9901 5.11262 80.9198 5.23445 80.7605 5.23445L79.111 5.22508V8.13042L81.2478 8.12105C81.4071 8.12105 81.4774 8.2382 81.4774 8.35067C81.4774 8.46782 81.4071 8.58028 81.2619 8.58028L78.6892 8.56154L78.6799 8.56623ZM74.1297 11.8793C73.9798 11.8793 73.9142 11.7715 73.9142 11.6496C73.9142 11.5419 73.9845 11.4341 74.1297 11.4341L77.0257 11.4435V10.3938L75.4043 10.4032C75.2544 10.4032 75.1747 10.2954 75.1747 10.1876C75.1747 10.0798 75.2544 9.97204 75.4043 9.97204H77.0257L77.0163 9.26913C77.0163 9.10981 77.1428 9.03014 77.2834 9.03014C77.4099 9.03014 77.5412 9.10981 77.5412 9.26913L77.5318 9.97204H79.1813C79.3312 9.97204 79.3968 10.0798 79.3968 10.1876C79.3968 10.2954 79.3265 10.4032 79.1813 10.4032L77.5318 10.3938V11.4435L80.498 11.4341C80.648 11.4341 80.7136 11.5419 80.7136 11.6637C80.7136 11.7715 80.6433 11.8793 80.498 11.8793H74.1297ZM78.6002 5.23445L77.2928 5.22508L75.9385 5.23445V5.92799H78.6002V5.23445ZM78.6002 6.30287H75.9385V7.01515H78.6002V6.30287ZM78.6002 7.39003H75.9385V8.1398L77.2834 8.14917L78.6002 8.1398V7.39003Z" fill="#231815"/>
<path d="M86.1774 4.3725C86.0509 4.3725 85.9103 4.45216 85.7744 4.63023C84.5795 6.15319 82.6301 7.73707 82.2552 7.73707C82.0771 7.73707 81.96 7.61055 81.96 7.4606C81.96 7.36219 82.0209 7.26378 82.1474 7.19349C83.3517 6.57025 84.6591 5.26285 85.4323 4.25535C85.6291 4.00699 85.8775 3.87109 86.1446 3.87109C86.4117 3.87109 86.6694 3.99762 86.9178 4.25535C87.9159 5.32377 89.0218 6.2844 90.2496 6.90765C90.3573 6.96856 90.4089 7.0576 90.4089 7.14663C90.4089 7.30596 90.2683 7.46528 90.0902 7.46528C89.7154 7.46528 87.6488 5.783 86.6179 4.63492C86.4679 4.45685 86.3227 4.37719 86.1821 4.37719L86.1774 4.3725ZM82.4801 11.7202C82.3208 11.7202 82.2411 11.6031 82.2411 11.4812C82.2411 11.3734 82.3208 11.2516 82.4801 11.2516L85.9337 11.261V8.75863L83.2346 8.768C83.0752 8.768 82.9956 8.65085 82.9956 8.52901C82.9956 8.40718 83.0752 8.29003 83.2346 8.29003L85.9337 8.2994V7.00605L84.5092 7.01542C84.3498 7.01542 84.2702 6.90765 84.2702 6.78581C84.2702 6.67803 84.3498 6.55619 84.5092 6.55619H87.9393C88.0987 6.55619 88.1783 6.66397 88.1783 6.78581C88.1783 6.89359 88.0987 7.01542 87.93 7.01542L86.4586 7.00605V8.2994L89.1671 8.29003C89.3264 8.29003 89.3967 8.40718 89.3967 8.52901C89.3967 8.65085 89.3264 8.768 89.1671 8.768L86.4586 8.75863V11.261H87.0912C87.4192 10.7783 87.7332 10.066 87.9112 9.48965C87.9487 9.36313 88.0518 9.30221 88.1596 9.30221C88.3095 9.30221 88.4548 9.40999 88.4548 9.56931C88.4548 9.65835 88.019 10.6471 87.5926 11.261L89.9075 11.2516C90.0668 11.2516 90.1371 11.3688 90.1371 11.4812C90.1371 11.5984 90.0668 11.7202 89.9075 11.7202H82.4801ZM84.5092 10.7408C84.3311 10.3238 83.9843 9.92077 83.7594 9.70052C83.7219 9.66303 83.7079 9.62086 83.7079 9.58337C83.7079 9.47559 83.8344 9.36781 83.975 9.36781C84.2421 9.36781 84.9918 10.305 84.9918 10.6049C84.9918 10.7643 84.8512 10.8908 84.7154 10.8908C84.6263 10.8908 84.5467 10.8533 84.5092 10.7408Z" fill="#231815"/>
<path d="M95.5446 4.2409C95.3853 4.08157 95.2494 4.00191 95.1088 4.00191C94.9589 4.00191 94.8323 4.08157 94.6824 4.25027C93.4968 5.59516 91.3412 7.01034 91.0507 7.01034C90.8914 7.01034 90.793 6.88382 90.793 6.74324C90.793 6.64483 90.8445 6.5558 90.9617 6.49488C92.1707 5.94193 93.5624 4.78448 94.3356 3.89413C94.5324 3.66451 94.7902 3.54736 95.0666 3.54736C95.3244 3.54736 95.5915 3.65514 95.8305 3.88476C96.8286 4.83602 98.0235 5.67482 99.2419 6.22778C99.3497 6.27932 99.4012 6.37773 99.4012 6.47614C99.4012 6.61672 99.2934 6.76198 99.1247 6.76198C98.8061 6.76198 96.7208 5.41709 95.5446 4.2409ZM95.3665 8.64108C94.4856 8.64108 93.5858 8.63171 92.9345 8.62234C91.9739 8.61297 91.9739 8.15842 91.9739 7.3946C91.9739 6.86039 92.002 6.32618 92.9017 6.31681C93.5624 6.30744 94.6215 6.29807 95.6196 6.29807C96.2616 6.29807 96.8848 6.30744 97.3722 6.31681C97.9064 6.32618 98.2625 6.61203 98.2719 7.02909C98.2813 7.16967 98.2813 7.31494 98.2813 7.47426C98.2813 8.14905 98.2719 8.59422 97.3628 8.62234C96.8005 8.63171 96.0882 8.64108 95.3665 8.64108ZM94.8604 6.67295C94.1482 6.67295 93.464 6.67295 93.0188 6.68232C92.4471 6.69169 92.4471 6.98691 92.4471 7.54455C92.4471 7.90069 92.4659 8.23809 93.0329 8.24746C93.4874 8.25683 94.1622 8.2662 94.8604 8.2662V6.67295ZM96.7677 12.0338C96.285 12.0525 95.6805 12.0525 95.0854 12.0525C94.4903 12.0525 93.9186 12.0525 93.464 12.0338C92.494 12.0057 92.494 11.5183 92.494 10.6186C92.494 10.403 92.494 10.1828 92.5034 9.99535C92.5221 9.55955 92.7798 9.25496 93.4406 9.24558C93.9045 9.23621 94.5184 9.22684 95.1229 9.22684C95.7274 9.22684 96.3506 9.23621 96.8052 9.24558C97.3675 9.25496 97.7049 9.62047 97.7236 9.99535C97.733 10.1734 97.7424 10.3702 97.7424 10.567C97.7424 10.806 97.733 11.0403 97.7236 11.2278C97.6955 11.7104 97.3862 12.0103 96.763 12.0291L96.7677 12.0338ZM97.2316 10.4218C97.2316 10.0047 97.2316 9.63921 96.6693 9.63921C96.1069 9.63921 95.2447 9.62984 94.4949 9.62984C94.1201 9.62984 93.7733 9.62984 93.5156 9.63921C93.1875 9.64858 93.0001 9.83602 92.9907 10.1219C92.9907 10.2109 92.9813 10.3187 92.9813 10.4171H97.2316V10.4218ZM92.9813 10.7967C92.9813 10.9372 92.9907 11.0638 92.9907 11.1715C93.0095 11.6167 93.2578 11.6261 95.0666 11.6261C95.6618 11.6261 96.2616 11.6167 96.6786 11.598C97.2316 11.5792 97.2316 11.2512 97.2316 10.7967H92.9813ZM93.9514 8.11625C93.8811 8.11625 93.8342 8.0975 93.792 8.02721C93.6327 7.76011 93.3984 7.49301 93.1875 7.26808C93.1594 7.23059 93.15 7.19779 93.15 7.1603C93.15 7.06189 93.2766 6.96348 93.4078 6.96348C93.5952 6.96348 94.2185 7.70388 94.2185 7.8632C94.2185 8.00378 94.0685 8.12093 93.9514 8.12093V8.11625ZM93.8717 5.65608C93.7311 5.65608 93.6655 5.55767 93.6655 5.44989C93.6655 5.35149 93.7358 5.24371 93.8717 5.24371H96.4209C96.5615 5.24371 96.6271 5.34212 96.6271 5.44989C96.6271 5.5483 96.5568 5.65608 96.4209 5.65608H93.8717ZM95.9101 8.2662C95.9101 8.2662 95.8914 8.22871 95.8914 8.20528C95.8914 8.19591 95.8914 8.17717 95.9007 8.1678C96.0882 7.8632 96.3553 7.38523 96.5052 7.03846C96.5334 6.9588 96.6037 6.93068 96.6739 6.93068C96.8145 6.93068 96.9598 7.04783 96.9598 7.17904C96.9598 7.27745 96.4537 8.04127 96.2991 8.2662C97.733 8.2662 97.8126 8.25683 97.8126 7.47426C97.8126 6.94943 97.7845 6.70107 97.241 6.68232C96.7583 6.67295 96.046 6.67295 95.3337 6.67295V8.2662H95.9195H95.9101Z" fill="#231815"/>
</svg>
