<svg width="21" height="21" viewBox="0 0 21 21" fill="none" xmlns="http://www.w3.org/2000/svg">
<g id="Icon">
<mask id="mask0_502_3677" style="mask-type:alpha" maskUnits="userSpaceOnUse" x="0" y="0" width="21" height="21">
<rect id="Bounding box" x="0.5" y="0.158203" width="20" height="20" fill="#D9D9D9"/>
</mask>
<g mask="url(#mask0_502_3677)">
<path id="open_in_new" d="M4.99107 17.2409C4.5582 17.2409 4.18763 17.0868 3.87938 16.7785C3.57112 16.4703 3.41699 16.0997 3.41699 15.6668V4.64829C3.41699 4.21542 3.57112 3.84486 3.87938 3.5366C4.18763 3.22835 4.5582 3.07422 4.99107 3.07422H9.7133C9.93629 3.07422 10.1232 3.14964 10.2741 3.30049C10.4249 3.45134 10.5003 3.63826 10.5003 3.86126C10.5003 4.08425 10.4249 4.27117 10.2741 4.42202C10.1232 4.57287 9.93629 4.64829 9.7133 4.64829H4.99107V15.6668H16.0096V10.9446C16.0096 10.7216 16.085 10.5347 16.2359 10.3838C16.3867 10.233 16.5736 10.1576 16.7966 10.1576C17.0196 10.1576 17.2066 10.233 17.3574 10.3838C17.5083 10.5347 17.5837 10.7216 17.5837 10.9446V15.6668C17.5837 16.0997 17.4295 16.4703 17.1213 16.7785C16.813 17.0868 16.4425 17.2409 16.0096 17.2409H4.99107ZM8.13922 12.5187C7.99493 12.3744 7.92278 12.1907 7.92278 11.9677C7.92278 11.7448 7.99493 11.5611 8.13922 11.4168L14.9077 4.64829H12.8614C12.6385 4.64829 12.4515 4.57287 12.3007 4.42202C12.1498 4.27117 12.0744 4.08425 12.0744 3.86126C12.0744 3.63826 12.1498 3.45134 12.3007 3.30049C12.4515 3.14964 12.6385 3.07422 12.8614 3.07422H16.7966C17.0196 3.07422 17.2066 3.14964 17.3574 3.30049C17.5083 3.45134 17.5837 3.63826 17.5837 3.86126V7.79645C17.5837 8.01944 17.5083 8.20636 17.3574 8.35721C17.2066 8.50806 17.0196 8.58349 16.7966 8.58349C16.5736 8.58349 16.3867 8.50806 16.2359 8.35721C16.085 8.20636 16.0096 8.01944 16.0096 7.79645V5.75015L9.2214 12.5384C9.07711 12.6826 8.90002 12.7548 8.69015 12.7548C8.48027 12.7548 8.29663 12.6761 8.13922 12.5187Z" fill="#171818" fill-opacity="0.3"/>
</g>
</g>
</svg>
