<svg width="24" height="25" viewBox="0 0 24 25" fill="none" xmlns="http://www.w3.org/2000/svg">
<mask id="mask0_530_17384" style="mask-type:alpha" maskUnits="userSpaceOnUse" x="0" y="0" width="24" height="25">
<rect y="0.5" width="24" height="24" fill="#D9D9D9"/>
</mask>
<g mask="url(#mask0_530_17384)">
<path d="M19.95 21.5C17.8 21.5 15.7042 21.0208 13.6625 20.0625C11.6208 19.1042 9.8125 17.8375 8.2375 16.2625C6.6625 14.6875 5.39583 12.8792 4.4375 10.8375C3.47917 8.79583 3 6.7 3 4.55C3 4.25 3.1 4 3.3 3.8C3.5 3.6 3.75 3.5 4.05 3.5H8.1C8.33333 3.5 8.54167 3.575 8.725 3.725C8.90833 3.875 9.01667 4.06667 9.05 4.3L9.7 7.8C9.73333 8.03333 9.72917 8.24583 9.6875 8.4375C9.64583 8.62917 9.55 8.8 9.4 8.95L6.975 11.4C7.675 12.6 8.55417 13.725 9.6125 14.775C10.6708 15.825 11.8333 16.7333 13.1 17.5L15.45 15.15C15.6 15 15.7958 14.8875 16.0375 14.8125C16.2792 14.7375 16.5167 14.7167 16.75 14.75L20.2 15.45C20.4333 15.5 20.625 15.6125 20.775 15.7875C20.925 15.9625 21 16.1667 21 16.4V20.45C21 20.75 20.9 21 20.7 21.2C20.5 21.4 20.25 21.5 19.95 21.5ZM6.025 9.5L7.675 7.85L7.25 5.5H5.025C5.10833 6.18333 5.225 6.85833 5.375 7.525C5.525 8.19167 5.74167 8.85 6.025 9.5ZM19 19.45V17.25L16.65 16.775L14.975 18.45C15.625 18.7333 16.2875 18.9583 16.9625 19.125C17.6375 19.2917 18.3167 19.4 19 19.45Z" fill="#EA5504"/>
</g>
</svg>
