<svg width="25" height="25" viewBox="0 0 25 25" fill="none" xmlns="http://www.w3.org/2000/svg">
<mask id="mask0_530_8179" style="mask-type:alpha" maskUnits="userSpaceOnUse" x="0" y="0" width="25" height="25">
<rect x="0.816406" y="0.651367" width="24" height="24" fill="#D9D9D9"/>
</mask>
<g mask="url(#mask0_530_8179)">
<path d="M12.8164 19.6514C12.5331 19.6514 12.2956 19.5555 12.1039 19.3639C11.9122 19.1722 11.8164 18.9347 11.8164 18.6514V13.6514H6.81641C6.53307 13.6514 6.29557 13.5555 6.10391 13.3639C5.91224 13.1722 5.81641 12.9347 5.81641 12.6514C5.81641 12.368 5.91224 12.1305 6.10391 11.9389C6.29557 11.7472 6.53307 11.6514 6.81641 11.6514H11.8164V6.65137C11.8164 6.36803 11.9122 6.13053 12.1039 5.93887C12.2956 5.7472 12.5331 5.65137 12.8164 5.65137C13.0997 5.65137 13.3372 5.7472 13.5289 5.93887C13.7206 6.13053 13.8164 6.36803 13.8164 6.65137V11.6514H18.8164C19.0997 11.6514 19.3372 11.7472 19.5289 11.9389C19.7206 12.1305 19.8164 12.368 19.8164 12.6514C19.8164 12.9347 19.7206 13.1722 19.5289 13.3639C19.3372 13.5555 19.0997 13.6514 18.8164 13.6514H13.8164V18.6514C13.8164 18.9347 13.7206 19.1722 13.5289 19.3639C13.3372 19.5555 13.0997 19.6514 12.8164 19.6514Z" fill="#007D81"/>
</g>
</svg>
